<?xml version="1.0" encoding="utf-8"?><svg width="130" height="112" viewBox="0 0 130 112" xmlns="http://www.w3.org/2000/svg" xmlns:xlink="http://www.w3.org/1999/xlink"><svg width="16" height="12" fill="none" viewBox="0 0 16 12" id="form-checkbox-tick" xmlns="http://www.w3.org/2000/svg"><path fill-rule="evenodd" clip-rule="evenodd" d="M15.461.806a1.1 1.1 0 01.033 1.555l-8.442 8.8a1.1 1.1 0 01-1.587 0L.306 5.785A1.1 1.1 0 011.894 4.26l4.365 4.55L13.906.839a1.1 1.1 0 011.555-.033z" fill="#fff"/></svg><svg width="18" height="20" fill="none" viewBox="0 0 18 20" id="input-date" x="16" y="12" xmlns="http://www.w3.org/2000/svg"><path fill-rule="evenodd" clip-rule="evenodd" d="M12 0a1 1 0 00-1 1v1H7V1a1 1 0 00-1-1H5a1 1 0 00-1 1v1H3a3 3 0 00-3 3v12a3 3 0 003 3h12a3 3 0 003-3V5a3 3 0 00-3-3h-1V1a1 1 0 00-1-1h-1zM3 5h12v12H3V5zm1 4a1 1 0 001 1h8a1 1 0 001-1V8a1 1 0 00-1-1H5a1 1 0 00-1 1v1z" fill="#829AB2"/></svg><svg width="21" height="14" fill="none" viewBox="0 0 21 14" id="mail" x="34" y="32" xmlns="http://www.w3.org/2000/svg"><path d="M.67 1.5l8.75 4.7c.294.158.674.233 1.057.233.382 0 .763-.075 1.057-.232.294-.158 8.18-4.395 8.75-4.7.57-.307 1.11-1.501.063-1.501H.607C-.438 0 .1 1.194.67 1.5zm19.878 2.57c-.647.338-8.618 4.491-9.014 4.699-.397.207-.675.232-1.057.232-.383 0-.66-.025-1.057-.232-.397-.208-8.322-4.362-8.97-4.7-.455-.238-.45.041-.45.256v8.508C0 13.323.66 14 1.167 14h18.666C20.34 14 21 13.323 21 12.833V4.326c0-.215.005-.493-.451-.255z" fill="#333"/></svg><svg width="21" height="22" fill="none" viewBox="0 0 21 22" id="phone" x="55" y="46" xmlns="http://www.w3.org/2000/svg"><path d="M12.116 12.117c-2.078 2.076-4.486 4.064-5.438 3.112-1.361-1.361-2.202-2.548-5.206-.133-3.002 2.413-.696 4.022.624 5.34 1.523 1.523 7.2.082 12.811-5.528 5.61-5.612 7.048-11.289 5.524-12.812-1.32-1.32-2.921-3.626-5.335-.623-2.414 3.002-1.228 3.843.136 5.205.948.952-1.039 3.36-3.116 5.439z" fill="#333"/></svg><svg width="26" height="26" fill="none" viewBox="0 0 26 26" id="popup-close" x="76" y="68" xmlns="http://www.w3.org/2000/svg"><path d="M25.276 23.26L2.648.633l-1.94 1.94L23.337 25.2l1.94-1.94z" fill="#272526"/><path d="M23.338.632L.711 23.26l1.94 1.94L25.278 2.572l-1.94-1.94z" fill="#272526"/></svg><svg width="14" height="9" fill="none" viewBox="0 0 14 9" id="select2-arrow" x="102" y="94" xmlns="http://www.w3.org/2000/svg"><path d="M.48 1.664C-.095 1.02.363 0 1.226 0h11.546c.863 0 1.32 1.02.748 1.664L7.747 8.16a1 1 0 01-1.494 0L.479 1.664z" fill="#829AB2"/></svg><svg width="14" height="9" fill="none" viewBox="0 0 14 9" id="select2-arrow-active" x="116" y="103" xmlns="http://www.w3.org/2000/svg"><path d="M.48 1.664C-.095 1.02.363 0 1.226 0h11.546c.863 0 1.32 1.02.748 1.664L7.747 8.16a1 1 0 01-1.494 0L.479 1.664z" fill="#DD6900"/></svg></svg>