<?xml version="1.0" encoding="utf-8"?><svg width="797" height="616" viewBox="0 0 797 616" xmlns="http://www.w3.org/2000/svg" xmlns:xlink="http://www.w3.org/1999/xlink"><svg width="16" height="16" fill="none" viewBox="0 0 16 16" id="cross" xmlns="http://www.w3.org/2000/svg"><path d="M11.766 4.234a.8.8 0 00-1.13 0L8.005 6.865 5.374 4.234a.799.799 0 00-1.13 1.13l2.631 2.631-2.631 2.631a.8.8 0 101.13 1.13l2.631-2.631 2.631 2.631a.799.799 0 001.13-1.13L9.135 7.995l2.631-2.631a.8.8 0 000-1.13z" fill="#333"/></svg><svg width="22" height="22" fill="none" viewBox="0 0 22 22" id="date" x="16" y="16" xmlns="http://www.w3.org/2000/svg"><path d="M2.75 4.583h16.5V19.25H2.75V4.583zm16.5 3.667H2.75m3.667-3.667V2.75m9.167 1.833V2.75" stroke="#999" stroke-width="2" stroke-linecap="square"/><path d="M15.583 13.75H13.75v1.833h1.833V13.75z" stroke="#999" stroke-width="2" stroke-linecap="square"/></svg><svg width="23" height="20" fill="none" viewBox="0 0 23 20" id="download" x="38" y="38" xmlns="http://www.w3.org/2000/svg"><path d="M15.714 11.429h-2.857V0H10v11.429H7.143l4.286 4.285 4.285-4.285zM22 17.143H.857C.07 17.143 0 17.78 0 18.57 0 19.361.069 20 .857 20H22c.789 0 .857-.639.857-1.429s-.068-1.428-.857-1.428z" fill="#333"/></svg><svg width="32" height="18" fill="none" viewBox="0 0 32 18" id="eye" x="61" y="58" xmlns="http://www.w3.org/2000/svg"><path opacity=".87" d="M16 0C5.502 0 0 7.731 0 8.96c0 1.226 5.502 8.96 16 8.96 10.496 0 16-7.734 16-8.96C32 7.731 26.496 0 16 0zm0 15.851c-3.928 0-7.112-3.085-7.112-6.891S12.072 2.066 16 2.066s7.11 3.088 7.11 6.894-3.182 6.891-7.11 6.891zm0-6.891c-.651-.715 1.06-3.446 0-3.446-1.965 0-3.557 1.544-3.557 3.446 0 1.902 1.592 3.446 3.557 3.446 1.963 0 3.557-1.544 3.557-3.446 0-.875-3.003.606-3.557 0z" fill="#000"/></svg><svg width="22" height="22" fill="none" viewBox="0 0 22 22" id="file" x="93" y="76" xmlns="http://www.w3.org/2000/svg"><path d="M11.917 2.75v5.5h5.5" stroke="#999" stroke-width="2" stroke-linecap="round"/><path d="M11.916 2.75l5.5 5.5v11H4.583V2.75h7.333z" stroke="#999" stroke-width="2" stroke-linecap="square"/></svg><svg width="16" height="12" fill="none" viewBox="0 0 16 12" id="form-checkbox-tick" x="115" y="98" xmlns="http://www.w3.org/2000/svg"><path fill-rule="evenodd" clip-rule="evenodd" d="M15.461.806a1.1 1.1 0 01.033 1.555l-8.442 8.8a1.1 1.1 0 01-1.587 0L.306 5.785A1.1 1.1 0 011.894 4.26l4.365 4.55L13.906.839a1.1 1.1 0 011.555-.033z" fill="#fff"/></svg><svg width="23" height="22" fill="none" viewBox="0 0 23 22" id="global" x="131" y="110" xmlns="http://www.w3.org/2000/svg"><path d="M11.001 0C4.934 0 0 4.935 0 11s4.934 11 11.001 11c6.065 0 11-4.935 11-11s-4.935-11-11-11zm9.382 11a9.341 9.341 0 01-1.943 5.706c-.344-.268-.71-.993-.366-1.745.348-.756.438-2.507.358-3.189-.076-.68-.43-2.32-1.391-2.336-.96-.014-1.62-.331-2.19-1.47-1.184-2.37 2.222-2.825 1.038-4.135-.33-.37-2.043 1.514-2.294-.996-.016-.18.155-.45.385-.729 3.717 1.249 6.403 4.763 6.403 8.894zM9.713 1.71c-.225.438-.818.616-1.178.945-.783.71-1.12.61-1.542 1.291-.425.68-1.796 1.66-1.796 2.153 0 .493.693 1.073 1.039.96.346-.114 1.259-.107 1.795.08.538.19 4.485.381 3.227 3.718-.399 1.06-2.146.882-2.612 2.639-.07.257-.311 1.359-.326 1.718-.029.557.394 2.656-.143 2.656-.54 0-1.992-1.878-1.992-2.218 0-.34-.376-1.533-.376-2.555 0-1.021-1.739-1.005-1.739-2.363 0-1.224.943-1.833.731-2.421-.207-.584-1.864-.604-2.555-.676a9.41 9.41 0 017.466-5.926zM8.048 19.904c.564-.298.622-.683 1.133-.702.584-.027 1.06-.228 1.718-.374.585-.127 1.63-.72 2.55-.796.778-.063 2.31.04 2.722.79a9.347 9.347 0 01-8.123 1.083z" fill="#999"/></svg><svg width="18" height="20" fill="none" viewBox="0 0 18 20" id="input-date" x="154" y="132" xmlns="http://www.w3.org/2000/svg"><path fill-rule="evenodd" clip-rule="evenodd" d="M12 0a1 1 0 00-1 1v1H7V1a1 1 0 00-1-1H5a1 1 0 00-1 1v1H3a3 3 0 00-3 3v12a3 3 0 003 3h12a3 3 0 003-3V5a3 3 0 00-3-3h-1V1a1 1 0 00-1-1h-1zM3 5h12v12H3V5zm1 4a1 1 0 001 1h8a1 1 0 001-1V8a1 1 0 00-1-1H5a1 1 0 00-1 1v1z" fill="#829AB2"/></svg><svg width="13" height="20" fill="none" viewBox="0 0 13 20" id="location" x="172" y="152" xmlns="http://www.w3.org/2000/svg"><path d="M6.254 0A6.243 6.243 0 000 6.241C0 12.213 6.254 20 6.254 20s6.254-7.789 6.254-13.759C12.508 2.79 9.708 0 6.254 0zm0 9.695a3.377 3.377 0 11-.001-6.753 3.377 3.377 0 010 6.753z" fill="#999"/></svg><svg width="21" height="14" fill="none" viewBox="0 0 21 14" id="mail" x="185" y="172" xmlns="http://www.w3.org/2000/svg"><path d="M.67 1.5l8.75 4.7c.294.158.674.233 1.057.233.382 0 .763-.075 1.057-.232.294-.158 8.18-4.395 8.75-4.7.57-.307 1.11-1.501.063-1.501H.607C-.438 0 .1 1.194.67 1.5zm19.878 2.57c-.647.338-8.618 4.491-9.014 4.699-.397.207-.675.232-1.057.232-.383 0-.66-.025-1.057-.232-.397-.208-8.322-4.362-8.97-4.7-.455-.238-.45.041-.45.256v8.508C0 13.323.66 14 1.167 14h18.666C20.34 14 21 13.323 21 12.833V4.326c0-.215.005-.493-.451-.255z" fill="rgba(51, 51, 51, 0.87)"/></svg><svg width="20" height="18" fill="none" viewBox="0 0 20 18" id="palette" x="206" y="186" xmlns="http://www.w3.org/2000/svg"><path d="M16.24.77C12.404-.52 8.558-.275 4.586 2.155c-3.1 1.894-5.128 6.604-4.46 9.98.792 3.99 4.73 6.516 10.047 5.055 5.734-1.575 7.119-4.94 6.934-5.798-.185-.856-2.897-1.795-1.867-3.802 1.29-2.514 3.4-1.248 4.328-1.763.929-.513.585-3.74-3.33-5.057zm-3.964 11.637a1.635 1.635 0 01-2.003-1.151 1.63 1.63 0 011.137-2.01 1.633 1.633 0 012.003 1.15 1.63 1.63 0 01-1.137 2.01z" fill="#999"/></svg><svg width="21" height="22" fill="none" viewBox="0 0 21 22" id="phone" x="226" y="204" xmlns="http://www.w3.org/2000/svg"><path d="M12.116 12.117c-2.078 2.076-4.486 4.064-5.438 3.112-1.361-1.361-2.202-2.548-5.206-.133-3.002 2.413-.696 4.022.624 5.34 1.523 1.523 7.2.082 12.811-5.528 5.61-5.612 7.048-11.289 5.524-12.812-1.32-1.32-2.921-3.626-5.335-.623-2.414 3.002-1.228 3.843.136 5.205.948.952-1.039 3.36-3.116 5.439z" fill="rgba(51, 51, 51, 0.87)"/></svg><svg width="26" height="26" fill="none" viewBox="0 0 26 26" id="popup-close" x="247" y="226" xmlns="http://www.w3.org/2000/svg"><path d="M25.276 23.26L2.648.633l-1.94 1.94L23.337 25.2l1.94-1.94z" fill="#272526"/><path d="M23.338.632L.711 23.26l1.94 1.94L25.278 2.572l-1.94-1.94z" fill="#272526"/></svg><svg width="16" height="16" fill="none" viewBox="0 0 16 16" id="select2-arrow" x="273" y="252" xmlns="http://www.w3.org/2000/svg"><path d="M3.415 6.65l3.825 4.464a1 1 0 001.519 0l3.826-4.463A1 1 0 0011.825 5H4.174a1 1 0 00-.76 1.65z" fill="#333"/></svg><svg width="16" height="16" fill="none" viewBox="0 0 16 16" id="select2-arrow-active" x="289" y="268" xmlns="http://www.w3.org/2000/svg"><path d="M3.415 6.65l3.825 4.464a1 1 0 001.519 0l3.826-4.463A1 1 0 0011.825 5H4.174a1 1 0 00-.76 1.65z" fill="#448D6E"/></svg><svg width="51" height="16" fill="none" viewBox="0 0 51 16" id="slick-left" x="305" y="284" xmlns="http://www.w3.org/2000/svg"><path d="M.293 8.707a1 1 0 010-1.414L6.657.929A1 1 0 118.07 2.343L2.414 8l5.657 5.657a1 1 0 11-1.414 1.414L.293 8.707zM51 9H1V7h50v2z" fill="#fff"/></svg><svg width="51" height="16" fill="none" viewBox="0 0 51 16" id="slick-left-dark" x="356" y="300" xmlns="http://www.w3.org/2000/svg"><path opacity=".54" d="M.293 8.707a1 1 0 010-1.414L6.657.929A1 1 0 118.07 2.343L2.414 8l5.657 5.657a1 1 0 11-1.414 1.414L.293 8.707zM51 9H1V7h50v2z" fill="#333"/></svg><svg width="51" height="16" fill="none" viewBox="0 0 51 16" id="slick-right" x="407" y="316" xmlns="http://www.w3.org/2000/svg"><path d="M50.707 8.707a1 1 0 000-1.414L44.343.929a1 1 0 10-1.414 1.414L48.586 8l-5.657 5.657a1 1 0 001.414 1.414l6.364-6.364zM0 9h50V7H0v2z" fill="#fff"/></svg><svg width="51" height="16" fill="none" viewBox="0 0 51 16" id="slick-right-dark" x="458" y="332" xmlns="http://www.w3.org/2000/svg"><path opacity=".54" d="M50.707 8.707a1 1 0 000-1.414L44.343.929a1 1 0 00-1.414 1.414L48.586 8l-5.657 5.657a1 1 0 001.414 1.414l6.364-6.364zM0 9h50V7H0v2z" fill="#333"/></svg><svg width="48" height="48" fill="none" viewBox="0 0 48 48" id="slider-next" x="509" y="348" xmlns="http://www.w3.org/2000/svg"><path d="M27 18l6 6-6 6m-12-6h15" stroke="#ABAAAA" stroke-width="2" stroke-linecap="square"/><path d="M33 24h-3" stroke="#ABAAAA" stroke-width="2" stroke-linecap="round"/><path d="M24 44c11.046 0 20-8.954 20-20S35.046 4 24 4 4 12.954 4 24s8.954 20 20 20z" stroke="#ABAAAA" stroke-width="2" stroke-linecap="square"/></svg><svg width="48" height="48" fill="none" viewBox="0 0 48 48" id="slider-next-primary" x="557" y="396" xmlns="http://www.w3.org/2000/svg"><path d="M24 44c11.046 0 20-8.954 20-20S35.046 4 24 4 4 12.954 4 24s8.954 20 20 20z" fill="#448D6E"/><path d="M27 18l6 6-6 6m-12-6h15" stroke="#fff" stroke-width="2" stroke-linecap="square"/><path d="M33 24h-3" stroke="#fff" stroke-width="2" stroke-linecap="round"/></svg><svg width="48" height="48" fill="none" viewBox="0 0 48 48" id="slider-prev" x="605" y="444" xmlns="http://www.w3.org/2000/svg"><path d="M21 18l-6 6 6 6m12-6H18" stroke="#ABAAAA" stroke-width="2" stroke-linecap="square"/><path d="M15 24h3" stroke="#ABAAAA" stroke-width="2" stroke-linecap="round"/><path d="M24 44C12.954 44 4 35.046 4 24S12.954 4 24 4s20 8.954 20 20-8.954 20-20 20z" stroke="#ABAAAA" stroke-width="2" stroke-linecap="square"/></svg><svg width="48" height="48" fill="none" viewBox="0 0 48 48" id="slider-prev-primary" x="653" y="492" xmlns="http://www.w3.org/2000/svg"><path d="M24 44C12.954 44 4 35.046 4 24S12.954 4 24 4s20 8.954 20 20-8.954 20-20 20z" fill="#448D6E"/><path d="M21 18l-6 6 6 6m12-6H18" stroke="#fff" stroke-width="2" stroke-linecap="square"/><path d="M15 24h3" stroke="#fff" stroke-width="2" stroke-linecap="round"/></svg><svg width="22" height="22" fill="none" viewBox="0 0 22 22" id="time" x="701" y="540" xmlns="http://www.w3.org/2000/svg"><path d="M11 20.167a9.167 9.167 0 100-18.334 9.167 9.167 0 000 18.334z" stroke="#999" stroke-width="2" stroke-linecap="square"/><path d="M11 4.583V11l3.667 3.667" stroke="#999" stroke-width="2" stroke-linecap="square"/></svg><svg width="20" height="16" fill="none" viewBox="0 0 20 16" id="video" x="723" y="562" xmlns="http://www.w3.org/2000/svg"><path d="M10.5 8a2.5 2.5 0 11-5.001-.001A2.5 2.5 0 0110.5 8zM16 2v12c0 1.1-.9 2-2 2H2c-1.1 0-2-.9-2-2V2C0 .9.9 0 2 0h12c1.1 0 2 .9 2 2zm-3.5 6a4.5 4.5 0 10-9 0 4.5 4.5 0 009 0zm6.715-4.914L17 4.562v7l2.215 1.477a.505.505 0 00.785-.42V3.506a.505.505 0 00-.785-.42z" fill="#999"/></svg><svg width="22" height="13" fill="none" viewBox="0 0 22 13" id="views" x="743" y="578" xmlns="http://www.w3.org/2000/svg"><path opacity=".87" d="M11 0C3.783 0 0 5.315 0 6.16c0 .843 3.783 6.16 11 6.16 7.216 0 11-5.317 11-6.16C22 5.315 18.216 0 11 0zm0 10.898c-2.7 0-4.89-2.121-4.89-4.738 0-2.617 2.19-4.74 4.89-4.74 2.7 0 4.888 2.123 4.888 4.74S13.7 10.898 11 10.898zm0-4.738c-.448-.492.73-2.37 0-2.37-1.35 0-2.445 1.062-2.445 2.37S9.649 8.53 11 8.53c1.35 0 2.445-1.062 2.445-2.37 0-.602-2.064.417-2.445 0z" fill="#999"/></svg><svg width="32" height="25" fill="none" viewBox="0 0 32 25" id="youtube" x="765" y="591" xmlns="http://www.w3.org/2000/svg"><path d="M16 0C.275 0 0 1.398 0 12.32s.275 12.32 16 12.32 16-1.398 16-12.32S31.725 0 16 0zm5.128 12.854l-7.184 3.354c-.629.291-1.144-.035-1.144-.73V9.162c0-.693.515-1.021 1.144-.73l7.184 3.354c.629.294.629.774 0 1.068z" fill="#fff" opacity=".9"/></svg></svg>