<?xml version="1.0" encoding="utf-8"?><svg xmlns="http://www.w3.org/2000/svg" xmlns:xlink="http://www.w3.org/1999/xlink"><symbol fill="none" viewBox="0 0 32 32" id="fb" xmlns="http://www.w3.org/2000/svg"><path d="M16 0C7.163 0 0 7.163 0 16s7.163 16 16 16 16-7.163 16-16S24.837 0 16 0zm3.79 11.057h-2.405c-.285 0-.602.375-.602.873v1.737h3.009l-.455 2.476h-2.554v7.435h-2.838v-7.435H11.37v-2.476h2.575V12.21c0-2.09 1.45-3.788 3.44-3.788h2.405v2.635z" fill="currentcolor"/></symbol><symbol fill="none" viewBox="0 0 16 16" id="location" xmlns="http://www.w3.org/2000/svg"><path d="M8 14c2.667-2.8 4-5.467 4-8a4 4 0 00-8 0c0 2.533 1.333 5.2 4 8z" stroke="#DADADA" stroke-width="2" stroke-linecap="square"/><path d="M8 6.667a.667.667 0 100-1.334.667.667 0 000 1.334z" stroke="#DADADA" stroke-width="2" stroke-linecap="square"/></symbol><symbol fill="none" viewBox="0 0 155 140" id="logo" xmlns="http://www.w3.org/2000/svg"><g clip-path="url(#cclip0)"><path d="M122.607 55.803v19.033h17.209V55.803h-17.209zm-15.178-15.029H155V89.87h-32.387v21.042h-15.184V40.774z" fill="#06673D"/><path fill-rule="evenodd" clip-rule="evenodd" d="M0 40.65h47.57v23.263H32.388v-8.204H15.184v40.14h17.203v-14.67H47.57V110.9H0V40.65z" fill="#06673D"/><path d="M107.435 25.159H47.559v85.736h59.876V25.159z" fill="#ED1C24"/><path d="M79.702 80.597h-4.404L65.17 110.93H47.565l14.199-38.52-7.379-21.493-5.722-16.368h17.612l9.023 29.681h4.404l9.023-29.68h17.612L93.242 72.41l14.199 38.52H89.829L79.702 80.597z" fill="#fff"/><path fill-rule="evenodd" clip-rule="evenodd" d="M36.666 120.55l5.052-9.649h5.841l-4.369 9.649 4.369 9.648h-5.788l-5.105-9.648zm-7.847 0l4.998-9.649h5.895l-4.37 9.649 4.37 9.648h-5.895l-4.998-9.648z" fill="#ED1C24"/><path d="M58.44 115.035v11.029h4.184v-11.029H58.44zm-3.906-4.134h12.27v19.297h-12.27v-7.663h-2.79v7.663h-4.185v-19.297h4.185v7.499h2.79v-7.499z" fill="#06673D"/><path fill-rule="evenodd" clip-rule="evenodd" d="M69.29 110.901h9.712v4.134h-5.526v15.163H69.29v-19.297z" fill="#06673D"/><path d="M85.181 115.035v5.239h4.743v-5.239h-4.743zm-4.179-4.134H94.11v13.507h-8.93v5.79h-4.185v-19.297h.006z" fill="#06673D"/><path fill-rule="evenodd" clip-rule="evenodd" d="M118.375 120.544l-5.069-9.649h-5.865l4.381 9.649-4.381 9.655h5.811l5.123-9.655z" fill="#ED1C24"/><path fill-rule="evenodd" clip-rule="evenodd" d="M126.258 120.544l-5.022-9.649h-5.918l4.387 9.649-4.387 9.655h5.918l5.022-9.655z" fill="#ED1C24"/><path d="M100.496 121.507h3.876l-.611-6.478h-2.648l-.617 6.478zm-3.069-10.612h10.014l1.894 19.298h-4.185l-.416-4.552h-4.6l-.416 4.552h-4.185l1.894-19.298zm8.287-93.495h1.739v6.608h-1.739v-3.894l-1.918 3.894h-1.739V17.4h1.739v3.893l1.918-3.893zm-11.29 0h1.739v6.608h-1.74v-3.894l-1.917 3.894h-1.74V17.4h1.74v3.893l1.917-3.893zm-14.413 0h4.945v2.403h-1.74v-.723h-1.472v3.242h1.472V21.6h1.74v2.402H80.01V17.4zm-10.762 0h4.945v2.403h-1.74v-.723h-1.472v3.242h1.472V21.6h1.74v2.402h-4.945V17.4zm-9.141 1.68v3.242h1.507v-3.241h-1.507zm-1.74-1.68h4.98v6.608h-4.98V17.4zm-9.046 1.68v1.457h1.472V19.08h-1.472zm-1.733-1.68h4.944v4.7h-3.205v1.908h-1.74V17.4zm56.635-4.732v1.203h1.579v-.722l-.463-.481h-1.116zm1.579-2.526h-1.579v1.204h1.116l.463-.482v-.722zm-3.283-1.444h4.98v2.642l-.813.664.813.664v2.642h-4.98V8.698zm-4.137 1.685v3.242h1.507v-3.242h-1.507zm-1.74-1.685h4.981v6.606h-4.98V8.698zM92.65 12.82v2.49h-1.74V8.703h1.74v2.438h.64l1.045-2.438h1.882l-1.579 3.195 1.65 3.412h-1.881l-1.116-2.49h-.641zm-4.375-4.122h1.739v6.606h-1.74v-3.893l-1.917 3.893h-1.739V8.697h1.74v3.894l1.917-3.893zm-9.533 0h1.739v2.437h1.508V8.698h1.739v6.606h-1.74v-2.49H80.48v2.49h-1.74V8.697zm-3.669 4.063v2.55h-1.74v-2.55h-.415l-1.116 2.55h-1.786l1.65-3.413-1.567-3.195h1.775l1.044 2.502h.416V8.71h1.74v2.502h.415l1.044-2.502h1.775l-1.567 3.195 1.65 3.412h-1.786l-1.116-2.549h-.416v-.006zm-8.648-2.378v3.242h1.507v-3.242h-1.507zM64.69 8.698h4.98v6.606h-4.98V8.698zm-4.303 4.927h1.418v-3.242h-.95l-.468 3.242zm-.92-4.927h4.083v4.927h.671v2.666h-1.739v-.987h-2.553v.987H58.19v-2.666h.606l.67-4.927zm-6.43 0h1.74v2.595h1.383V8.698h1.74v6.606h-4.856v-1.562h3.122v-.887h-3.122V8.697h-.006zM50.1 12.82h-.486l-.754 2.49h-1.763l1.116-3.33-.523-1.597-.522-1.68h1.775l.67 2.438h.487l.671-2.438h1.775L51.5 11.986l1.128 3.33h-1.775L50.1 12.82zM102.68 0h4.856v1.656L106.004 3.3l1.532 1.645V6.6h-4.856V4.927h2.808l-1.484-1.62 1.484-1.622h-2.808V0zM87.211 1.68v3.24h1.265V1.68H87.21zM85.597 0h4.618v6.607h-4.618V4.123h-1.08v2.49h-1.74V0h1.74v2.437h1.08V0zm-18.74 1.68v3.24h1.508V1.68h-1.508zM65.124 0h4.98v6.607h-4.98V0zM47.589 0h4.944v2.402h-1.739V1.68h-1.472v3.24h1.472v-.716h1.74v2.402h-4.945V0z" fill="#06673D"/><path d="M109.317 130.199H47.559V140h61.758v-9.801z" fill="#ED1C24"/></g><defs><clipPath id="cclip0"><path fill="#fff" d="M0 0h155v140H0z"/></clipPath></defs></symbol><symbol fill="none" viewBox="0 0 115 105" id="logo-white" xmlns="http://www.w3.org/2000/svg"><g clip-path="url(#dclip0)"><path d="M90.967 41.852v14.275h12.767V41.852H90.967zM79.706 30.581H115v36.822H90.971v15.781H79.705V30.581z" fill="#fff"/><path fill-rule="evenodd" clip-rule="evenodd" d="M0 30.488h35.294v17.447H24.03V41.78H11.266v30.106h12.763V60.884h11.265v22.291H0V30.488z" fill="#fff"/><path d="M79.71 18.87H35.286v64.3H79.71v-64.3z" fill="#ED1C24"/><path d="M59.134 60.448h-3.268l-7.513 22.75H35.29l10.535-28.89-5.475-16.12-4.245-12.276h13.067l6.694 22.26h3.268l6.694-22.26h13.067L69.18 54.308l10.534 28.89H66.647l-7.513-22.75z" fill="#fff"/><path fill-rule="evenodd" clip-rule="evenodd" d="M27.204 90.412l3.748-7.237h4.334l-3.242 7.237 3.242 7.237h-4.294l-3.788-7.237zm-5.822 0l3.708-7.237h4.373l-3.241 7.237 3.241 7.237H25.09l-3.708-7.237z" fill="#ED1C24"/><path d="M43.358 86.276v8.272h3.105v-8.272h-3.105zm-2.897-3.1h9.103v14.473H40.46V91.9h-2.07v5.748h-3.105V83.175h3.105V88.8h2.07v-5.624z" fill="#fff"/><path fill-rule="evenodd" clip-rule="evenodd" d="M51.41 83.175h7.204v3.101h-4.1V97.65h-3.105V83.175z" fill="#fff"/><path d="M63.199 86.276v3.93h3.519v-3.93h-3.519zm-3.1-3.1h9.724v10.13h-6.624v4.343h-3.105V83.175h.005z" fill="#fff"/><path fill-rule="evenodd" clip-rule="evenodd" d="M87.827 90.408l-3.761-7.237h-4.352l3.25 7.237-3.25 7.24h4.312l3.8-7.24z" fill="#ED1C24"/><path fill-rule="evenodd" clip-rule="evenodd" d="M93.675 90.408L89.95 83.17h-4.39l3.254 7.237-3.255 7.24h4.391l3.726-7.24z" fill="#ED1C24"/><path d="M74.561 91.13h2.876l-.453-4.858H75.02l-.459 4.858zm-2.276-7.959h7.43l1.404 14.473h-3.105l-.308-3.413h-3.413l-.308 3.413H70.88l1.405-14.473zm6.148-70.121h1.29v4.956h-1.29v-2.92l-1.423 2.92h-1.29V13.05h1.29v2.92l1.423-2.92zm-8.377 0h1.29v4.956h-1.29v-2.92l-1.422 2.92h-1.29V13.05h1.29v2.92l1.422-2.92zm-10.693 0h3.669v1.802h-1.29v-.542h-1.093v2.432h1.092V16.2h1.29V18h-3.668v-4.95zm-7.985 0h3.669v1.802h-1.29v-.542h-1.093v2.432h1.093V16.2h1.29V18h-3.669v-4.95zm-6.782 1.26v2.432h1.119V14.31h-1.12zm-1.29-1.26H47v4.956h-3.695V13.05zm-6.712 1.26v1.093h1.092V14.31h-1.092zm-1.286-1.26h3.668v3.524h-2.378v1.432h-1.29V13.05zm42.02-3.55v.903h1.17v-.541l-.343-.361h-.828zm1.17-1.893h-1.17v.903h.827l.344-.362v-.541zm-2.435-1.084h3.695v1.982l-.603.498.603.498v1.982h-3.695v-4.96zm-3.07 1.264v2.432h1.12V7.787h-1.12zm-1.29-1.264h3.695v4.955h-3.695V6.523zM68.74 9.615v1.868h-1.29V6.527h1.29v1.828h.476l.775-1.827h1.396l-1.171 2.396 1.224 2.559h-1.396l-.828-1.868h-.476zm-3.246-3.092h1.29v4.955h-1.29v-2.92l-1.422 2.92h-1.29V6.523h1.29v2.92l1.422-2.92zm-7.073 0h1.29v1.828h1.12V6.523h1.29v4.955h-1.29V9.611h-1.12v1.867h-1.29V6.523zM55.7 9.571v1.912h-1.29V9.57h-.31l-.828 1.912h-1.326l1.225-2.56-1.163-2.395h1.317l.775 1.876h.308V6.532h1.29v1.876h.309l.775-1.876H58.1l-1.163 2.396 1.225 2.56h-1.326l-.828-1.913H55.7v-.004zm-6.417-1.784v2.432H50.4V7.787h-1.12zm-1.286-1.264h3.695v4.955h-3.695V6.523zm-3.193 3.696h1.053V7.787h-.705l-.348 2.432zm-.683-3.696h3.03v3.696h.498v2h-1.29v-.74h-1.894v.74h-1.29v-2h.449l.497-3.696zm-4.77 0h1.291V8.47h1.026V6.523h1.29v4.955h-3.602v-1.171h2.317v-.665h-2.317V6.523h-.004zm-2.18 3.092h-.36l-.56 1.868h-1.308l.828-2.498-.388-1.198-.387-1.26h1.317l.498 1.828h.36l.498-1.827h1.317L38.21 8.99l.837 2.497H37.73l-.56-1.872zM76.183 0h3.603v1.242L78.65 2.475l1.136 1.234V4.95h-3.603V3.695h2.083l-1.1-1.215 1.1-1.216h-2.083V0zM64.705 1.26v2.43h.938V1.26h-.938zM63.507 0h3.427v4.955h-3.427V3.092h-.801V4.96h-1.29V0h1.29v1.828h.801V0zM49.603 1.26v2.43h1.119V1.26h-1.119zM48.317 0h3.696v4.955h-3.696V0zm-13.01 0h3.67v1.801h-1.291V1.26h-1.092v2.43h1.092v-.537h1.29v1.801h-3.668V0z" fill="#fff"/><path d="M81.106 97.649h-45.82V105h45.82v-7.351z" fill="#ED1C24"/></g><defs><clipPath id="dclip0"><path fill="#fff" d="M0 0h115v105H0z"/></clipPath></defs></symbol><symbol fill="none" viewBox="0 0 16 11" id="mail" xmlns="http://www.w3.org/2000/svg"><path d="M.51 1.143l6.667 3.581c.224.12.514.177.805.177.292 0 .582-.057.806-.177l6.666-3.58C15.89.908 16.3 0 15.502 0H.463C-.334 0 .076.91.51 1.143zm15.146 1.958l-6.868 3.58c-.303.158-.514.177-.806.177-.291 0-.503-.019-.805-.177C6.875 6.523.837 3.357.343 3.1-.004 2.918 0 3.13 0 3.294v6.483c0 .373.503.889.889.889H15.11c.386 0 .889-.516.889-.89V3.297c0-.164.004-.376-.344-.195z" fill="#DADADA"/></symbol><symbol fill="none" viewBox="0 0 16 16" id="phone" xmlns="http://www.w3.org/2000/svg"><path d="M9.23 9.23c-1.584 1.582-3.418 3.096-4.143 2.371-1.037-1.037-1.677-1.941-3.965-.102-2.288 1.838-.53 3.064.475 4.068 1.16 1.16 5.484.063 9.759-4.211 4.273-4.275 5.368-8.599 4.207-9.76-1.005-1.005-2.225-2.761-4.063-.474-1.84 2.287-.936 2.927.103 3.965.722.725-.791 2.56-2.374 4.143z" fill="#DADADA"/></symbol><symbol fill="none" viewBox="0 0 26 26" id="popup-close" xmlns="http://www.w3.org/2000/svg"><path d="M25.276 23.26L2.648.633l-1.94 1.94L23.337 25.2l1.94-1.94z" fill="#272526"/><path d="M23.338.632L.711 23.26l1.94 1.94L25.278 2.572l-1.94-1.94z" fill="#272526"/></symbol><symbol fill="none" viewBox="0 0 32 32" id="tw" xmlns="http://www.w3.org/2000/svg"><path d="M16 0C7.163 0 0 7.163 0 16s7.163 16 16 16 16-7.163 16-16S24.837 0 16 0zm6.508 13.107c.007.136.009.273.009.406 0 4.167-3.169 8.969-8.965 8.969-1.78 0-3.437-.52-4.83-1.417.245.03.496.042.751.042a6.312 6.312 0 003.914-1.349 3.158 3.158 0 01-2.944-2.186 3.169 3.169 0 001.422-.055 3.154 3.154 0 01-2.528-3.09v-.039a3.16 3.16 0 001.428.395 3.15 3.15 0 01-1.402-2.625c0-.576.155-1.12.427-1.585a8.96 8.96 0 006.495 3.295 3.152 3.152 0 015.37-2.875 6.328 6.328 0 002-.765 3.166 3.166 0 01-1.385 1.745 6.329 6.329 0 001.81-.498 6.39 6.39 0 01-1.572 1.632z" fill="currentcolor"/></symbol><symbol fill="none" viewBox="0 0 32 32" id="vk" xmlns="http://www.w3.org/2000/svg"><path d="M16 0C7.163 0 0 7.163 0 16s7.163 16 16 16 16-7.163 16-16S24.837 0 16 0zm6.153 18.052s1.415 1.396 1.764 2.045c.01.013.015.026.018.033.142.238.175.423.105.562-.117.23-.517.343-.653.353h-2.5c-.174 0-.537-.045-.977-.348-.338-.237-.672-.625-.997-1.004-.485-.563-.905-1.05-1.328-1.05a.51.51 0 00-.158.025c-.32.104-.73.56-.73 1.777 0 .38-.3.598-.512.598H15.04c-.39 0-2.422-.136-4.222-2.035-2.203-2.325-4.186-6.988-4.203-7.031-.125-.302.133-.464.415-.464h2.525c.337 0 .447.205.523.387.09.212.42 1.053.962 2 .878 1.543 1.417 2.17 1.848 2.17a.5.5 0 00.232-.06c.563-.313.458-2.322.433-2.738 0-.079-.001-.899-.29-1.292-.206-.285-.558-.393-.771-.433a.918.918 0 01.331-.282c.387-.193 1.084-.222 1.775-.222h.385c.75.01.944.059 1.215.127.55.132.562.487.514 1.702-.015.345-.03.735-.03 1.195 0 .1-.005.206-.005.32-.017.618-.037 1.32.4 1.608a.36.36 0 00.19.055c.151 0 .608 0 1.845-2.122a16.19 16.19 0 00.991-2.123c.025-.043.099-.177.185-.228a.443.443 0 01.207-.049h2.968c.324 0 .545.049.587.174.073.198-.013.803-1.368 2.638l-.605.798c-1.229 1.61-1.229 1.692.076 2.914z" fill="currentcolor"/></symbol></svg>