<?xml version="1.0" encoding="utf-8"?><svg width="415" height="316" viewBox="0 0 415 316" xmlns="http://www.w3.org/2000/svg" xmlns:xlink="http://www.w3.org/1999/xlink"><svg width="22" height="22" fill="none" viewBox="0 0 22 22" id="date" xmlns="http://www.w3.org/2000/svg"><path d="M2.75 4.583h16.5V19.25H2.75V4.583zm16.5 3.667H2.75m3.667-3.667V2.75m9.167 1.833V2.75" stroke="#999" stroke-width="2" stroke-linecap="square"/><path d="M15.583 13.75H13.75v1.833h1.833V13.75z" stroke="#999" stroke-width="2" stroke-linecap="square"/></svg><svg width="32" height="18" fill="none" viewBox="0 0 32 18" id="eye" x="22" y="22" xmlns="http://www.w3.org/2000/svg"><path opacity=".87" d="M16 0C5.502 0 0 7.731 0 8.96c0 1.226 5.502 8.96 16 8.96 10.496 0 16-7.734 16-8.96C32 7.731 26.496 0 16 0zm0 15.851c-3.928 0-7.112-3.085-7.112-6.891S12.072 2.066 16 2.066s7.11 3.088 7.11 6.894-3.182 6.891-7.11 6.891zm0-6.891c-.651-.715 1.06-3.446 0-3.446-1.965 0-3.557 1.544-3.557 3.446 0 1.902 1.592 3.446 3.557 3.446 1.963 0 3.557-1.544 3.557-3.446 0-.875-3.003.606-3.557 0z" fill="#000"/></svg><svg width="16" height="12" fill="none" viewBox="0 0 16 12" id="form-checkbox-tick" x="54" y="40" xmlns="http://www.w3.org/2000/svg"><path fill-rule="evenodd" clip-rule="evenodd" d="M15.461.806a1.1 1.1 0 01.033 1.555l-8.442 8.8a1.1 1.1 0 01-1.587 0L.306 5.785A1.1 1.1 0 011.894 4.26l4.365 4.55L13.906.839a1.1 1.1 0 011.555-.033z" fill="#fff"/></svg><svg width="18" height="20" fill="none" viewBox="0 0 18 20" id="input-date" x="70" y="52" xmlns="http://www.w3.org/2000/svg"><path fill-rule="evenodd" clip-rule="evenodd" d="M12 0a1 1 0 00-1 1v1H7V1a1 1 0 00-1-1H5a1 1 0 00-1 1v1H3a3 3 0 00-3 3v12a3 3 0 003 3h12a3 3 0 003-3V5a3 3 0 00-3-3h-1V1a1 1 0 00-1-1h-1zM3 5h12v12H3V5zm1 4a1 1 0 001 1h8a1 1 0 001-1V8a1 1 0 00-1-1H5a1 1 0 00-1 1v1z" fill="#829AB2"/></svg><svg width="13" height="20" fill="none" viewBox="0 0 13 20" id="location" x="88" y="72" xmlns="http://www.w3.org/2000/svg"><path d="M6.254 0A6.243 6.243 0 000 6.241C0 12.213 6.254 20 6.254 20s6.254-7.789 6.254-13.759C12.508 2.79 9.708 0 6.254 0zm0 9.695a3.377 3.377 0 11-.001-6.753 3.377 3.377 0 010 6.753z" fill="#999"/></svg><svg width="21" height="14" fill="none" viewBox="0 0 21 14" id="mail" x="101" y="92" xmlns="http://www.w3.org/2000/svg"><path d="M.67 1.5l8.75 4.7c.294.158.674.233 1.057.233.382 0 .763-.075 1.057-.232.294-.158 8.18-4.395 8.75-4.7.57-.307 1.11-1.501.063-1.501H.607C-.438 0 .1 1.194.67 1.5zm19.878 2.57c-.647.338-8.618 4.491-9.014 4.699-.397.207-.675.232-1.057.232-.383 0-.66-.025-1.057-.232-.397-.208-8.322-4.362-8.97-4.7-.455-.238-.45.041-.45.256v8.508C0 13.323.66 14 1.167 14h18.666C20.34 14 21 13.323 21 12.833V4.326c0-.215.005-.493-.451-.255z" fill="#333"/></svg><svg width="21" height="22" fill="none" viewBox="0 0 21 22" id="phone" x="122" y="106" xmlns="http://www.w3.org/2000/svg"><path d="M12.116 12.117c-2.078 2.076-4.486 4.064-5.438 3.112-1.361-1.361-2.202-2.548-5.206-.133-3.002 2.413-.696 4.022.624 5.34 1.523 1.523 7.2.082 12.811-5.528 5.61-5.612 7.048-11.289 5.524-12.812-1.32-1.32-2.921-3.626-5.335-.623-2.414 3.002-1.228 3.843.136 5.205.948.952-1.039 3.36-3.116 5.439z" fill="#333"/></svg><svg width="26" height="26" fill="none" viewBox="0 0 26 26" id="popup-close" x="143" y="128" xmlns="http://www.w3.org/2000/svg"><path d="M25.276 23.26L2.648.633l-1.94 1.94L23.337 25.2l1.94-1.94z" fill="#272526"/><path d="M23.338.632L.711 23.26l1.94 1.94L25.278 2.572l-1.94-1.94z" fill="#272526"/></svg><svg width="14" height="9" fill="none" viewBox="0 0 14 9" id="select2-arrow" x="169" y="154" xmlns="http://www.w3.org/2000/svg"><path d="M.48 1.664C-.095 1.02.363 0 1.226 0h11.546c.863 0 1.32 1.02.748 1.664L7.747 8.16a1 1 0 01-1.494 0L.479 1.664z" fill="#829AB2"/></svg><svg width="14" height="9" fill="none" viewBox="0 0 14 9" id="select2-arrow-active" x="183" y="163" xmlns="http://www.w3.org/2000/svg"><path d="M.48 1.664C-.095 1.02.363 0 1.226 0h11.546c.863 0 1.32 1.02.748 1.664L7.747 8.16a1 1 0 01-1.494 0L.479 1.664z" fill="#DD6900"/></svg><svg width="51" height="16" fill="none" viewBox="0 0 51 16" id="slick-left" x="197" y="172" xmlns="http://www.w3.org/2000/svg"><path d="M.293 8.707a1 1 0 010-1.414L6.657.929A1 1 0 118.07 2.343L2.414 8l5.657 5.657a1 1 0 11-1.414 1.414L.293 8.707zM51 9H1V7h50v2z" fill="#fff"/></svg><svg width="51" height="16" fill="none" viewBox="0 0 51 16" id="slick-right" x="248" y="188" xmlns="http://www.w3.org/2000/svg"><path d="M50.707 8.707a1 1 0 000-1.414L44.343.929a1 1 0 10-1.414 1.414L48.586 8l-5.657 5.657a1 1 0 001.414 1.414l6.364-6.364zM0 9h50V7H0v2z" fill="#fff"/></svg><svg width="48" height="48" fill="none" viewBox="0 0 48 48" id="slider-next" x="299" y="204" xmlns="http://www.w3.org/2000/svg"><path d="M27 18l6 6-6 6m-12-6h15" stroke="#ABAAAA" stroke-width="2" stroke-linecap="square"/><path d="M33 24h-3" stroke="#ABAAAA" stroke-width="2" stroke-linecap="round"/><path d="M24 44c11.046 0 20-8.954 20-20S35.046 4 24 4 4 12.954 4 24s8.954 20 20 20z" stroke="#ABAAAA" stroke-width="2" stroke-linecap="square"/></svg><svg width="48" height="48" fill="none" viewBox="0 0 48 48" id="slider-prev" x="347" y="252" xmlns="http://www.w3.org/2000/svg"><path d="M21 18l-6 6 6 6m12-6H18" stroke="#ABAAAA" stroke-width="2" stroke-linecap="square"/><path d="M15 24h3" stroke="#ABAAAA" stroke-width="2" stroke-linecap="round"/><path d="M24 44C12.954 44 4 35.046 4 24S12.954 4 24 4s20 8.954 20 20-8.954 20-20 20z" stroke="#ABAAAA" stroke-width="2" stroke-linecap="square"/></svg><svg width="20" height="16" fill="none" viewBox="0 0 20 16" id="video" x="395" y="300" xmlns="http://www.w3.org/2000/svg"><path d="M10.5 8a2.5 2.5 0 11-5.001-.001A2.5 2.5 0 0110.5 8zM16 2v12c0 1.1-.9 2-2 2H2c-1.1 0-2-.9-2-2V2C0 .9.9 0 2 0h12c1.1 0 2 .9 2 2zm-3.5 6a4.5 4.5 0 10-9 0 4.5 4.5 0 009 0zm6.715-4.914L17 4.562v7l2.215 1.477a.505.505 0 00.785-.42V3.506a.505.505 0 00-.785-.42z" fill="#999"/></svg></svg>