<?xml version="1.0" encoding="utf-8"?><svg width="88" height="76" viewBox="0 0 88 76" xmlns="http://www.w3.org/2000/svg" xmlns:xlink="http://www.w3.org/1999/xlink"><svg width="16" height="12" fill="none" viewBox="0 0 16 12" id="form-checkbox-tick" xmlns="http://www.w3.org/2000/svg"><path fill-rule="evenodd" clip-rule="evenodd" d="M15.461.806a1.1 1.1 0 01.033 1.555l-8.442 8.8a1.1 1.1 0 01-1.587 0L.306 5.785A1.1 1.1 0 011.894 4.26l4.365 4.55L13.906.839a1.1 1.1 0 011.555-.033z" fill="#fff"/></svg><svg width="18" height="20" fill="none" viewBox="0 0 18 20" id="input-date" x="16" y="12" xmlns="http://www.w3.org/2000/svg"><path fill-rule="evenodd" clip-rule="evenodd" d="M12 0a1 1 0 00-1 1v1H7V1a1 1 0 00-1-1H5a1 1 0 00-1 1v1H3a3 3 0 00-3 3v12a3 3 0 003 3h12a3 3 0 003-3V5a3 3 0 00-3-3h-1V1a1 1 0 00-1-1h-1zM3 5h12v12H3V5zm1 4a1 1 0 001 1h8a1 1 0 001-1V8a1 1 0 00-1-1H5a1 1 0 00-1 1v1z" fill="#829AB2"/></svg><svg width="26" height="26" fill="none" viewBox="0 0 26 26" id="popup-close" x="34" y="32" xmlns="http://www.w3.org/2000/svg"><path d="M25.276 23.26L2.648.633l-1.94 1.94L23.337 25.2l1.94-1.94z" fill="#272526"/><path d="M23.338.632L.711 23.26l1.94 1.94L25.278 2.572l-1.94-1.94z" fill="#272526"/></svg><svg width="14" height="9" fill="none" viewBox="0 0 14 9" id="select2-arrow" x="60" y="58" xmlns="http://www.w3.org/2000/svg"><path d="M.48 1.664C-.095 1.02.363 0 1.226 0h11.546c.863 0 1.32 1.02.748 1.664L7.747 8.16a1 1 0 01-1.494 0L.479 1.664z" fill="#829AB2"/></svg><svg width="14" height="9" fill="none" viewBox="0 0 14 9" id="select2-arrow-active" x="74" y="67" xmlns="http://www.w3.org/2000/svg"><path d="M.48 1.664C-.095 1.02.363 0 1.226 0h11.546c.863 0 1.32 1.02.748 1.664L7.747 8.16a1 1 0 01-1.494 0L.479 1.664z" fill="#DD6900"/></svg></svg>