<svg width="32" height="32" viewBox="0 0 32 32" fill="none" xmlns="http://www.w3.org/2000/svg">
  <path
    d="M16 9.93411e-09C7.16333 9.93411e-09 9.93411e-09 7.16333 9.93411e-09 16C9.93411e-09 24.8367 7.16333 32 16 32C24.8367 32 32 24.8367 32 16C32 7.16333 24.8367 9.93411e-09 16 9.93411e-09ZM19.79 11.0567H17.385C17.1 11.0567 16.7833 11.4317 16.7833 11.93V13.6667H19.7917L19.3367 16.1433H16.7833V23.5783H13.945V16.1433H11.37V13.6667H13.945V12.21C13.945 10.12 15.395 8.42167 17.385 8.42167H19.79V11.0567Z"
    fill="currentcolor"/>
</svg>
