<svg width="155" height="140" viewBox="0 0 155 140" fill="none" xmlns="http://www.w3.org/2000/svg">
<g clip-path="url(#clip0)">
<path d="M122.607 55.8027V74.8362H139.816V55.8027H122.607ZM107.429 40.7744H155V89.8704H122.613V110.912H107.429V40.7744Z" fill="#06673D"/>
<path fill-rule="evenodd" clip-rule="evenodd" d="M0 40.6509H47.5709V63.9128H32.3866V55.7086H15.1842V95.8487H32.3866V81.1786H47.5709V110.9H0V40.6509Z" fill="#06673D"/>
<path d="M107.435 25.1587H47.559V110.895H107.435V25.1587Z" fill="#ED1C24"/>
<path d="M79.7023 80.5974H75.2978L65.171 110.93H47.5649L61.7638 72.4108L54.3854 50.9166L48.6631 34.5493H66.2751L75.2978 64.2301H79.7023L88.7249 34.5493H106.337L93.2422 72.4108L107.441 110.93H89.829L79.7023 80.5974Z" fill="white"/>
<path fill-rule="evenodd" clip-rule="evenodd" d="M36.6664 120.55L41.718 110.901H47.559L43.1901 120.55L47.559 130.198H41.7714L36.6664 120.55ZM28.8191 120.55L33.8172 110.901H39.7116L35.3427 120.55L39.7116 130.198H33.8172L28.8191 120.55Z" fill="#ED1C24"/>
<path d="M58.4396 115.035V126.064H62.6244V115.035H58.4396ZM54.5337 110.901H66.8034V130.198H54.5337V122.535H51.7438V130.198H47.559V110.901H51.7438V118.4H54.5337V110.901Z" fill="#06673D"/>
<path fill-rule="evenodd" clip-rule="evenodd" d="M69.2906 110.901H79.0019V115.035H73.4755V130.198H69.2906V110.901Z" fill="#06673D"/>
<path d="M85.1812 115.035V120.274H89.9241V115.035H85.1812ZM81.0023 110.901H94.1089V124.408H85.1812V130.198H80.9963V110.901H81.0023Z" fill="#06673D"/>
<path fill-rule="evenodd" clip-rule="evenodd" d="M118.375 120.544L113.306 110.895H107.441L111.822 120.544L107.441 130.199H113.252L118.375 120.544Z" fill="#ED1C24"/>
<path fill-rule="evenodd" clip-rule="evenodd" d="M126.258 120.544L121.236 110.895H115.318L119.705 120.544L115.318 130.199H121.236L126.258 120.544Z" fill="#ED1C24"/>
<path d="M100.496 121.507H104.372L103.761 115.029H101.113L100.496 121.507ZM97.427 110.895H107.441L109.335 130.193H105.15L104.734 125.641H100.134L99.7183 130.193H95.5334L97.427 110.895Z" fill="#06673D"/>
<path d="M105.714 17.4009H107.453V24.0077H105.714V20.1141L103.796 24.0077H102.057V19.0805V17.4009H103.796V21.2945L105.714 17.4009ZM94.4234 17.4009H96.1627V24.0077H94.4234V20.1141L92.5061 24.0077H90.7669V19.0805V17.4009H92.5061V21.2945L94.4234 17.4009ZM80.0109 17.4009H84.9555V19.8028H83.2163V19.0805H81.7442V22.3222H83.2163V21.5999H84.9555V24.0018H80.0109V17.4009ZM69.249 17.4009H74.1936V19.8028H72.4544V19.0805H70.9823V22.3222H72.4544V21.5999H74.1936V24.0018H69.249V17.4009ZM60.1076 19.0805V22.3222H61.6153V19.0805H60.1076ZM58.3684 17.4009H63.3486V24.0077H58.3684V17.4009ZM49.3219 19.0805V20.5369H50.7941V19.0805H49.3219ZM47.5886 17.4009H52.5333V22.0991H49.3279V24.0077H47.5886V17.4009ZM104.224 12.6675V13.8714H105.803V13.149L105.34 12.6675H104.224ZM105.803 10.1422H104.224V11.3461H105.34L105.803 10.8645V10.1422ZM102.52 8.69751H107.5V11.3402L106.687 12.0039L107.5 12.6675V15.3102H102.52V10.383V8.69751ZM98.3827 10.383V13.6247H99.8904V10.383H98.3827ZM96.6435 8.69751H101.624V15.3043H96.6435V8.69751ZM92.6486 12.8202V15.3102H90.9093V10.383V8.70338H92.6486V11.1406H93.2896L94.3344 8.70338H96.2161L94.6371 11.8981L96.2873 15.3102H94.4056L93.2896 12.8202H92.6486ZM88.2738 8.69751H90.013V15.3043H88.2738V11.4107L86.3564 15.3043H84.6172V10.3771V8.69751H86.3564V12.5911L88.2738 8.69751ZM78.7406 8.69751H80.4798V11.1347H81.9876V8.69751H83.7268V15.3043H81.9876V12.8143H80.4798V15.3043H78.7406V10.3771V8.69751ZM75.0722 12.7614V15.3102H73.3329V12.7614H72.9174L71.8014 15.3102H70.0147L71.6649 11.8981L70.0978 8.70338H71.8727L72.9174 11.2052H73.3329V10.3889V8.70926H75.0722V11.211H75.4877L76.5324 8.70926H78.3073L76.7402 11.904L78.3904 15.3161H76.6036L75.4877 12.7673H75.0722V12.7614ZM66.4235 10.383V13.6247H67.9312V10.383H66.4235ZM64.6902 8.69751H69.6704V15.3043H64.6902V8.69751ZM60.3866 13.6247H61.8053V10.383H60.8555L60.3866 13.6247ZM59.4665 8.69751H63.5504V13.6247H64.2212V16.291H62.482V15.3043H59.9295V16.291H58.1903V13.6247H58.7957L59.4665 8.69751ZM53.0379 8.69751H54.7771V11.2933H56.1602V8.69751H57.8994V15.3043H53.0438V13.7422H56.1661V12.8554H53.0438V10.3771V8.69751H53.0379ZM50.0995 12.8202H49.6128L48.8589 15.3102H47.0959L48.2119 11.9804L47.6895 10.383L47.1672 8.70338H48.942L49.6128 11.1406H50.0995L50.7703 8.70338H52.5452L51.5004 11.9862L52.6283 15.3161H50.8534L50.0995 12.8202ZM102.68 0H107.536V1.65611L106.004 3.30047L107.536 4.94484V6.60095H102.68V4.92722H105.488L104.004 3.30635L105.488 1.68547H102.68V0ZM87.2112 1.6796V4.92135H88.4756V1.6796H87.2112ZM85.5966 0H90.2148V6.60682H85.5966V4.12266H84.5163V6.61269H82.777V0H84.5163V2.43718H85.5966V0ZM66.8568 1.6796V4.92135H68.3645V1.6796H66.8568ZM65.1235 0H70.1038V6.60682H65.1235V0ZM47.5886 0H52.5333V2.40195H50.7941V1.6796H49.3219V4.92135H50.7941V4.20487H52.5333V6.60682H47.5886V0Z" fill="#06673D"/>
<path d="M109.317 130.199H47.559V140H109.317V130.199Z" fill="#ED1C24"/>
</g>
<defs>
<clipPath id="clip0">
<rect width="155" height="140" fill="white"/>
</clipPath>
</defs>
</svg>
