<svg width="115" height="105" viewBox="0 0 115 105" fill="none" xmlns="http://www.w3.org/2000/svg">
<g clip-path="url(#clip0)">
<path d="M90.9668 41.852V56.1271H103.734V41.852H90.9668ZM79.7055 30.5807H115V67.4028H90.9712V83.1842H79.7055V30.5807Z" fill="white"/>
<path fill-rule="evenodd" clip-rule="evenodd" d="M0 30.4882H35.2945V47.9346H24.0288V41.7815H11.2657V71.8866H24.0288V60.884H35.2945V83.1754H0V30.4882Z" fill="white"/>
<path d="M79.7098 18.8691H35.2856V83.1711H79.7098V18.8691Z" fill="#ED1C24"/>
<path d="M59.134 60.448H55.8661L48.3527 83.1975H35.2902L45.8248 54.3081L40.3505 38.1875L36.1049 25.912H49.1719L55.8661 48.1726H59.134L65.8282 25.912H78.8952L69.1798 54.3081L79.7144 83.1975H66.6474L59.134 60.448Z" fill="white"/>
<path fill-rule="evenodd" clip-rule="evenodd" d="M27.2041 90.4122L30.952 83.1755H35.2857L32.0442 90.4122L35.2857 97.6489H30.9917L27.2041 90.4122ZM21.3819 90.4122L25.0902 83.1755H29.4634L26.222 90.4122L29.4634 97.6489H25.0902L21.3819 90.4122Z" fill="#ED1C24"/>
<path d="M43.3584 86.2763V94.5481H46.4633V86.2763H43.3584ZM40.4605 83.1755H49.5638V97.6489H40.4605V91.9009H38.3905V97.6489H35.2856V83.1755H38.3905V88.8001H40.4605V83.1755Z" fill="white"/>
<path fill-rule="evenodd" clip-rule="evenodd" d="M51.4091 83.1755H58.6142V86.2763H54.514V97.6489H51.4091V83.1755Z" fill="white"/>
<path d="M63.199 86.2763V90.2052H66.7178V86.2763H63.199ZM60.0985 83.1755H69.8227V93.306H63.199V97.6489H60.0941V83.1755H60.0985Z" fill="white"/>
<path fill-rule="evenodd" clip-rule="evenodd" d="M87.8267 90.4077L84.0656 83.171H79.7144L82.9646 90.4077L79.7144 97.6488H84.026L87.8267 90.4077Z" fill="#ED1C24"/>
<path fill-rule="evenodd" clip-rule="evenodd" d="M93.6753 90.4077L89.9494 83.171H85.5585L88.8132 90.4077L85.5585 97.6488H89.9494L93.6753 90.4077Z" fill="#ED1C24"/>
<path d="M74.5615 91.13H77.4374L76.9838 86.2718H75.0196L74.5615 91.13ZM72.2846 83.171H79.7143L81.1193 97.6444H78.0144L77.7061 94.2309H74.2929L73.9846 97.6444H70.8797L72.2846 83.171Z" fill="white"/>
<path d="M78.4327 13.0507H79.7231V18.0058H78.4327V15.0856L77.0102 18.0058H75.7197V14.3104V13.0507H77.0102V15.9709L78.4327 13.0507ZM70.0561 13.0507H71.3465V18.0058H70.0561V15.0856L68.6335 18.0058H67.3431V14.3104V13.0507H68.6335V15.9709L70.0561 13.0507ZM59.3629 13.0507H63.0315V14.8521H61.7411V14.3104H60.6489V16.7417H61.7411V16.1999H63.0315V18.0014H59.3629V13.0507ZM51.3783 13.0507H55.0469V14.8521H53.7565V14.3104H52.6643V16.7417H53.7565V16.1999H55.0469V18.0014H51.3783V13.0507ZM44.5959 14.3104V16.7417H45.7146V14.3104H44.5959ZM43.3055 13.0507H47.0006V18.0058H43.3055V13.0507ZM36.5937 14.3104V15.4027H37.6859V14.3104H36.5937ZM35.3077 13.0507H38.9763V16.5743H36.5981V18.0058H35.3077V13.0507ZM77.3273 9.50061V10.4035H78.4987V9.86178L78.1552 9.50061H77.3273ZM78.4987 7.60665H77.3273V8.50958H78.1552L78.4987 8.14841V7.60665ZM76.0633 6.52313H79.7583V8.50518L79.155 9.00289L79.7583 9.50061V11.4827H76.0633V7.78724V6.52313ZM72.9936 7.78724V10.2185H74.1123V7.78724H72.9936ZM71.7032 6.52313H75.3983V11.4782H71.7032V6.52313ZM68.7392 9.61513V11.4827H67.4488V7.78724V6.52754H68.7392V8.35542H69.2149L69.99 6.52754H71.3861L70.2146 8.92361L71.439 11.4827H70.0429L69.2149 9.61513H68.7392ZM65.4934 6.52313H66.7838V11.4782H65.4934V8.55803L64.0709 11.4782H62.7805V7.78283V6.52313H64.0709V9.44335L65.4934 6.52313ZM58.4204 6.52313H59.7108V8.35102H60.8295V6.52313H62.1199V11.4782H60.8295V9.61072H59.7108V11.4782H58.4204V7.78283V6.52313ZM55.6987 9.57108V11.4827H54.4083V9.57108H54.1L53.272 11.4827H51.9464L53.1707 8.92361L52.008 6.52754H53.3249L54.1 8.40388H54.4083V7.79164V6.53194H55.6987V8.40828H56.007L56.7821 6.53194H58.0989L56.9362 8.92802L58.1606 11.4871H56.8349L56.007 9.57549H55.6987V9.57108ZM49.2819 7.78724V10.2185H50.4006V7.78724H49.2819ZM47.9959 6.52313H51.691V11.4782H47.9959V6.52313ZM44.8029 10.2185H45.8555V7.78724H45.1509L44.8029 10.2185ZM44.1203 6.52313H47.1503V10.2185H47.648V12.2182H46.3576V11.4782H44.4638V12.2182H43.1734V10.2185H43.6226L44.1203 6.52313ZM39.3506 6.52313H40.6411V8.46994H41.6672V6.52313H42.9576V11.4782H39.3551V10.3066H41.6716V9.64155H39.3551V7.78283V6.52313H39.3506ZM37.1706 9.61513H36.8095L36.2502 11.4827H34.9421L35.7701 8.98528L35.3825 7.78724L34.995 6.52754H36.3118L36.8095 8.35542H37.1706L37.6683 6.52754H38.9851L38.21 8.98968L39.0468 11.4871H37.7299L37.1706 9.61513ZM76.1822 0H79.7847V1.24208L78.6485 2.47536L79.7847 3.70863V4.95071H76.1822V3.69542H78.2653L77.1643 2.47976L78.2653 1.2641H76.1822V0ZM64.7051 1.2597V3.69101H65.6432V1.2597H64.7051ZM63.5072 0H66.9336V4.95512H63.5072V3.09199H62.7056V4.95952H61.4152V0H62.7056V1.82789H63.5072V0ZM49.6034 1.2597V3.69101H50.722V1.2597H49.6034ZM48.3174 0H52.0125V4.95512H48.3174V0ZM35.3077 0H38.9763V1.80146H37.6859V1.2597H36.5937V3.69101H37.6859V3.15366H38.9763V4.95512H35.3077V0Z" fill="white"/>
<path d="M81.106 97.6487H35.2856V105H81.106V97.6487Z" fill="#ED1C24"/>
</g>
<defs>
<clipPath id="clip0">
<rect width="115" height="105" fill="white"/>
</clipPath>
</defs>
</svg>
