<svg width="16" height="11" viewBox="0 0 16 11" fill="none" xmlns="http://www.w3.org/2000/svg">
<path d="M0.510224 1.14311C0.944001 1.376 6.95289 4.60444 7.17689 4.72444C7.40089 4.84444 7.69067 4.90133 7.98222 4.90133C8.27378 4.90133 8.56356 4.84444 8.78756 4.72444C9.01156 4.60444 15.0204 1.376 15.4542 1.14311C15.8889 0.909333 16.2996 0 15.5022 0H0.463112C-0.334221 0 0.0764459 0.909333 0.510224 1.14311ZM15.656 3.10133C15.1627 3.35822 9.08978 6.52266 8.78756 6.68089C8.48533 6.83911 8.27378 6.85778 7.98222 6.85778C7.69067 6.85778 7.47911 6.83911 7.17689 6.68089C6.87467 6.52266 0.836446 3.35733 0.343112 3.10044C-0.00355408 2.91911 1.43655e-06 3.13155 1.43655e-06 3.29511C1.43655e-06 3.45867 1.43655e-06 9.77777 1.43655e-06 9.77777C1.43655e-06 10.1511 0.503112 10.6667 0.88889 10.6667H15.1111C15.4969 10.6667 16 10.1511 16 9.77777C16 9.77777 16 3.45955 16 3.296C16 3.13244 16.0036 2.92 15.656 3.10133Z" fill="#DADADA"/>
</svg>
