<svg width="694" height="642" fill="none" xmlns="http://www.w3.org/2000/svg"><path fill="#fff" d="M0 0h694v642H0z"/><path d="M512.429 257.357c-7.642-17.119-17.832-32.301-33.32-43.306-6.725-4.789-9.578-4.076-13.96 2.955-11.82-13.756-23.946-27.41-35.358-41.37-8.254-10.088-16.201-20.481-21.296-32.709-3.159-7.744-6.624-9.17-13.858-4.687-13.145 8.05-24.353 18.24-33.524 30.773-13.349 18.137-22.417 38.109-25.474 60.628-.408 1.936-2.038 1.834-3.567 2.242-4.075 1.121-8.049 2.344-12.023 3.77-3.771 1.325-5.299 4.28-4.076 8.05 1.222 3.974 4.585 5.4 8.05 3.974 11.004-4.789 24.76-4.789 33.931-3.668 1.121.305 2.242.713 3.363.917 14.877 2.955 28.225 8.967 39.434 19.36l-.102.102c-1.631.917-3.669 1.426-5.197.815-4.178-1.63-8.356-.815-12.533-.713-3.465.102-6.827 1.019-7.744 5.095-.918 4.279 1.528 6.317 4.992 8.253 21.093 11.82 30.977 30.162 31.894 54.005.408 10.19-2.242 19.768-5.4 29.245-4.178 6.929-7.948 14.163-14.164 19.564-18.138 15.794-39.536 20.379-62.259 15.794-27.002-5.503-45.242-22.01-53.393-48.809-1.529-5.095-.408-9.17 2.853-13.144 5.094-6.318 11.514-10.496 19.054-13.145 8.967-2.446 18.138-4.28 27.512-3.974 2.038.102 3.974-.713 5.808-1.732 8.254-4.382 14.877-10.699 19.768-18.647 3.363-5.401 2.344-8.661-3.057-11.82-.713-.408-1.426-.917-2.241-1.223-19.768-8.356-37.193-19.972-51.662-35.868-.815-.917-.917-1.63-1.121-2.649-1.936-10.597-2.038-21.194.51-31.792.713-2.955.917-5.808-1.631-7.947-2.649-2.344-5.706-1.733-8.559-.408-7.846 3.77-15.182 8.254-21.908 13.756-4.279 3.464-8.457 7.133-12.737 10.699-1.426-1.834-1.324-3.77-1.528-5.604-.917-7.744-1.121-15.59-.917-23.334.204-6.828-4.076-9.477-10.394-6.726-.917.408-1.834.816-2.751 1.427-19.054 12.839-34.033 29.346-45.14 49.42-1.019 1.528-2.038 3.057-2.955 4.687-13.756 26.289-18.749 54.514-18.239 83.963.509 13.246 2.445 26.187 6.113 38.924 11.107 38.517 32.505 70.41 64.501 94.152 40.453 29.958 86.102 41.37 136.133 34.034 23.742-3.465 45.854-11.413 66.233-24.048 25.372-14.979 45.344-35.154 60.425-60.424 13.042-20.991 21.092-43.816 23.742-68.373.407-3.566.917-7.031 1.12-10.597 1.223-27.614-2.037-54.413-13.348-79.887zm-161.608-26.595c-3.77-.306-2.14-2.853-1.732-4.483 3.566-17.934 11.107-34.238 22.01-48.911 1.936-2.649 3.057-6.012 7.336-8.559-7.031 23.844-6.012 46.363 4.484 68.984-11.107-4.382-21.5-6.216-32.098-7.031zm35.766-33.524c.204-15.182 4.381-29.346 12.431-43.102 5.503 8.763 10.801 17.017 16.813 24.863 12.635 16.609 27.308 31.486 40.555 47.585 8.05 9.884 14.775 20.583 21.296 31.588 7.031 11.82 7.643 24.252 6.216 37.294-.306 2.853-.917 5.706-1.325 8.458-4.381 17.933-12.94 33.625-25.576 47.789 2.446-29.856-5.706-55.533-28.734-75.301-4.382-8.56-11.005-15.387-17.629-22.214-15.59-15.794-24.353-34.543-24.047-56.96zm31.18 168.842c12.839-23.741 8.661-59.915-9.272-81.313-1.121-1.324-2.038-2.649-2.955-4.076l.611-.611c14.164 3.974 23.232 13.96 29.856 26.391 10.495 19.564 9.374 39.842 3.77 60.425-.917 1.936-1.834 3.872-3.668 5.298-10.7 8.05-22.01 14.877-34.543 19.87-.714.306-1.529.408-3.77 1.019 9.374-8.254 15.997-16.711 19.971-27.003zm-129.204-54.005c-9.273 3.465-15.998 10.088-22.723 19.259 0-4.586-.102-7.744 0-10.801.305-7.337-1.325-9.069-8.356-9.578-11.005-.612-20.175-4.993-27.614-13.247-3.159-3.566-1.222-4.789 1.834-5.706l12.228-2.955c12.941-1.325 25.27 1.121 37.09 6.623 13.043 6.012 26.901 8.05 41.166 7.439 1.529-.102 3.057 0 4.688.509-13.145 1.528-26.493 1.63-38.313 8.457zm-9.069-89.363v14.979c0 1.834-.713 2.344-2.446 1.936-4.891-1.121-9.884-2.14-15.794-3.464 6.012-4.891 11.209-9.477 18.24-13.451zm-95.273 117.691c-3.974-13.756-3.363-27.512-1.223-41.574 2.649-16.915 8.559-32.301 16.201-47.382-.101-.204-.305-.509-.407-.713.102.204.306.407.407.713 8.56-13.348 17.73-26.085 29.958-36.377 1.223-1.019 2.14-2.649 4.483-2.751.612 5.706 1.223 11.31 1.936 17.017a73.645 73.645 0 001.223 6.521c2.955 11.209 4.789 12.737 16.406 12.941 17.118.305 31.791 5.604 43.407 18.749 8.458 9.578 19.666 15.488 30.875 21.296-4.891 2.14-13.552 2.446-23.13.611a88.582 88.582 0 01-20.278-6.419c-16.507-7.439-33.931-9.375-51.559-4.585-5.095 1.019-11.209 4.177-15.794 6.827-5.095 2.955-6.012 5.91-3.261 11.004 7.133 13.349 17.934 22.52 32.912 25.78 4.79 1.019 6.318 2.446 6.624 7.541 1.732 28.836 16.813 49.929 40.453 65.111 37.701 24.252 77.135 24.15 117.384 7.133 12.228-5.197 23.742-11.922 34.136-20.379 2.649-2.14 5.196-4.585 7.744-6.929 9.986-7.642 17.628-17.323 24.557-27.512 5.91-8.661 10.801-17.934 14.571-29.346 1.121 8.763 0 15.997-.917 23.13-3.465 26.493-13.654 50.133-30.365 71.022l-7.948 8.355c-12.33 12.738-27.003 22.214-43 29.958-21.908 9.171-44.631 13.348-68.373 12.533-73.569-2.547-137.866-53.19-156.513-120.849-.102-.509-.306-.917-.509-1.426zm328.514-3.363c-.102 1.834 0 3.668-.102 5.604-2.344 18.545-7.031 36.377-15.285 53.19-2.139 4.382-4.483 8.661-6.725 13.043-15.284 25.168-35.867 44.834-61.138 59.813-15.896 8.152-32.301 14.775-49.929 18.138-68.372 13.144-136.541-15.896-173.835-74.181-.713-1.121-1.223-2.242-2.242-4.076 2.751.306 3.465 2.038 4.585 3.261 26.799 30.569 59.916 50.439 99.553 59.406 34.747 7.846 68.882 5.4 102.1-7.439 3.261-1.223 5.095-1.936 9.171-3.974 2.038-1.019 2.038-1.121 2.955-1.528 19.87-9.884 36.581-23.742 50.337-41.166 14.164-16.508 22.825-35.868 28.021-56.757 3.771-15.182 5.809-30.569 4.891-46.261-.305-11.004-1.834-21.805-4.891-32.403-3.158-11.005-5.706-22.315-8.049-33.626 5.604 7.235 9.374 15.387 12.227 23.946 7.337 21.093 9.578 42.797 8.356 65.01z" fill="url(#paint0_linear)"/><defs><linearGradient id="paint0_linear" x1="222.009" y1="453.114" x2="471.458" y2="203.665" gradientUnits="userSpaceOnUse"><stop stop-color="#E71C7E"/><stop offset="1" stop-color="#FF8D42"/></linearGradient></defs></svg>