<svg width="622" height="325" fill="none" xmlns="http://www.w3.org/2000/svg"><path d="M96.774 190.337c-.927 0-2.15-.471-3.706-1.414L8.801 130.646c-2.316-1.548-4.004-3.131-5.096-4.713-1.091-1.549-1.62-3.434-1.62-5.656v-7.508c0-2.188.496-4.006 1.488-5.42.993-1.414 2.746-2.963 5.194-4.713l84.301-58.277c1.522-.943 2.78-1.414 3.706-1.414 1.39 0 2.547.437 3.474 1.279.926.875 1.389 2.087 1.389 3.636v26.597c0 2.356-.562 4.208-1.72 5.521-1.158 1.347-2.746 2.626-4.731 3.872l-49.198 32.656 49.198 32.893c2.15 1.582 3.771 2.929 4.863 4.107 1.092 1.178 1.621 2.862 1.621 5.05v26.799c0 1.414-.463 2.592-1.389 3.535-.96.976-2.118 1.447-3.507 1.447zm67.824-76.827h6.088c.033-6.834.099-12.154.232-15.992.297-10.167 2.845-17.742 7.609-22.691 4.764-4.949 11.249-7.407 19.388-7.407 8.007 0 14.392 2.458 19.156 7.407 4.765 4.949 7.312 12.49 7.61 22.691.231 6.767.397 12.12.43 15.992 14.921.034 29.876.101 44.797.269a968.917 968.917 0 00-.43-16.968c-.629-20.671-7.345-36.629-20.215-47.84-12.87-11.211-29.975-16.8-51.381-16.8-21.572 0-38.776 5.589-51.613 16.8-12.87 11.211-19.586 27.135-20.215 47.84-.132 3.939-.198 9.595-.231 16.968 12.969-.168 25.872-.235 38.775-.269z" fill="#000"/><path d="M225.045 126.135a820.989 820.989 0 01-.298 9.898c-.298 10.201-2.845 17.742-7.61 22.691-4.764 4.949-11.149 7.407-19.156 7.407-8.172 0-14.623-2.458-19.388-7.407-4.764-4.949-7.312-12.49-7.609-22.691-.1-2.626-.166-5.925-.199-9.864a5402.91 5402.91 0 01-44.83-.27c.033 4.848.099 8.686.198 11.548.761 21.008 7.478 36.899 20.083 47.706 12.639 10.807 29.876 16.227 51.745 16.227 21.869 0 39.074-5.42 51.613-16.227 12.539-10.807 19.222-26.698 19.983-47.706.166-4.377.265-8.248.331-11.615-12.01.135-27.758.269-44.863.303z" fill="#DD6900"/><path d="M292.174 160.004a25760.665 25760.665 0 0034.177-41.612c6.022-7.508 10.852-13.467 14.558-17.877 3.705-4.377 7.113-8.552 10.289-12.457a638.46 638.46 0 018.205-9.999c2.316-2.727 3.706-4.41 4.169-5.05.463-.64.563-1.178.331-1.65-.232-.471-.662-.707-1.257-.707h-65.84c-1.687 0-3.076-.538-4.168-1.65-1.092-1.11-1.621-2.49-1.621-4.241v-9.865c0-2.66.529-5.218 1.621-7.642a23.709 23.709 0 014.268-6.464c1.753-1.885 3.871-3.4 6.352-4.579 2.448-1.178 5.095-1.75 7.841-1.75h102.796c1.852 0 3.275.572 4.268 1.75.992 1.179 1.488 2.626 1.488 4.343v23.5c0 2.962-.926 5.656-2.779 7.979a4385.845 4385.845 0 00-33.482 42.554 3371.806 3371.806 0 00-14.326 17.978c-3.54 4.478-6.815 8.619-9.826 12.457-3.011 3.838-5.591 7.104-7.742 9.763-2.15 2.66-3.375 4.242-3.705 4.714-.298.471-.298.942 0 1.414.297.471.628.707.926.707h67.891c1.687 0 3.076.538 4.168 1.649s1.621 2.492 1.621 4.242v24.914c0 1.717-.529 3.131-1.621 4.242-1.092 1.111-2.448 1.649-4.168 1.649H294.656c-1.687 0-3.11-.572-4.268-1.75-1.158-1.179-1.721-2.626-1.721-4.343v-23.971c0-2.188.298-3.67.927-4.478.298-.639.662-1.212 1.026-1.75.43-.573.926-1.212 1.554-2.02zm154.276 33.161V55.671c0-5.96 1.986-10.841 6.022-14.679 4.003-3.838 8.701-5.757 14.094-5.757h18.462c1.852 0 3.242.539 4.168 1.65 1.059 1.11 1.622 2.525 1.622 4.242v152.072c0 1.717-.53 3.131-1.622 4.242-.926 1.111-2.316 1.65-4.168 1.65H452.24c-1.687 0-3.077-.539-4.168-1.65-1.059-1.145-1.622-2.559-1.622-4.276zm78.776-2.828c-1.39 0-2.548-.471-3.474-1.414-.927-.942-1.39-2.121-1.39-3.535V158.59c0-2.189.53-3.872 1.621-5.05 1.059-1.179 2.68-2.559 4.864-4.108l49.198-32.892-49.198-32.657c-2.018-1.245-3.573-2.558-4.731-3.871-1.158-1.313-1.721-3.165-1.721-5.522V47.927c0-1.548.464-2.794 1.39-3.636.926-.875 2.084-1.279 3.474-1.279.926 0 2.15.471 3.705 1.414l84.301 58.277c2.449 1.717 4.202 3.299 5.195 4.713.992 1.414 1.488 3.199 1.488 5.421v7.507c0 2.189-.529 4.074-1.621 5.656-1.092 1.583-2.779 3.131-5.095 4.714l-84.334 58.209c-1.522.943-2.746 1.414-3.672 1.414z" fill="#000"/><path d="M173.796 231.949v5.757h-4.5a1956.939 1956.939 0 00-7.014 20.941c-2.316 6.969-4.632 13.938-6.948 20.941h-8.039c-1.291-4.175-2.548-8.282-3.838-12.39-1.29-4.107-2.548-8.214-3.838-12.389l-8.304 24.779h-8.04l-12.936-41.882h-4.698v-5.757h10.686l10.951 37.539a1607.68 1607.68 0 014.301-13.366c1.456-4.444 2.912-8.888 4.368-13.366l-3.243-10.807h7.643l10.951 37.539 12.076-37.539h10.422zm16.774 48.413c-1.952 0-3.904-.269-5.889-.774-2.018-.505-3.838-1.448-5.492-2.761-1.654-1.313-3.011-3.097-4.07-5.319-1.058-2.222-1.588-5.017-1.588-8.417v-5.387c0-3.4.497-6.127 1.522-8.181 1.026-2.053 2.316-3.636 3.937-4.78 1.621-1.111 3.375-1.852 5.36-2.189a33.73 33.73 0 015.691-.505c1.786 0 3.606.202 5.393.606 1.786.404 3.374 1.145 4.797 2.256 1.423 1.111 2.547 2.626 3.408 4.579.86 1.952 1.29 4.477 1.29 7.608 0 1.078-.033 2.155-.099 3.3a19.099 19.099 0 01-.364 2.828h-23.888c0 2.121.331 3.871.96 5.319.628 1.448 1.456 2.559 2.415 3.434a9.036 9.036 0 003.143 1.818c1.125.37 2.151.539 3.143.539 2.68 0 4.897-.101 6.617-.337a68.18 68.18 0 004.798-.808l1.919 4.915c-1.622.775-3.574 1.347-5.823 1.717-2.35.337-4.732.539-7.18.539zm-.926-32.791c-1.092 0-2.184.101-3.243.303a5.856 5.856 0 00-2.845 1.414c-.827.74-1.522 1.818-2.051 3.232-.53 1.414-.827 3.299-.86 5.689h16.774c.231-.303.364-.639.397-1.01.033-.37.066-.841.066-1.481-.033-1.481-.298-2.727-.794-3.771-.496-1.043-1.092-1.851-1.853-2.525a7.47 7.47 0 00-2.581-1.414 11.046 11.046 0 00-3.01-.437zm32.059-19.662v16.531c.529-.505 1.522-1.01 3.011-1.549 1.489-.539 3.507-.808 6.088-.808 1.819 0 3.573.236 5.359.707a11.435 11.435 0 014.731 2.559c1.39 1.245 2.482 2.929 3.342 5.083.827 2.155 1.257 4.882 1.257 8.181v5.522c0 3.4-.43 6.161-1.29 8.282-.86 2.121-1.985 3.77-3.408 4.949a11.631 11.631 0 01-4.764 2.39c-1.754.438-3.54.64-5.36.64-2.779 0-4.929-.202-6.484-.64-1.555-.438-2.945-.943-4.136-1.515-.298.909-.695 1.582-1.158 2.087a5.25 5.25 0 01-1.357 1.078l-4.499-1.549c.231-.438.496-1.38.827-2.761.331-1.38.496-3.333.496-5.824v-37.673h-4.83v-5.656h12.175v-.034zm0 40.434c0 1.582-.066 2.963-.198 4.242.43.236.926.471 1.422.707.497.236 1.059.471 1.688.673.628.202 1.323.371 2.15.472.827.101 1.787.168 2.879.168 1.224 0 2.382-.135 3.44-.438 1.059-.303 1.952-.875 2.746-1.717.761-.841 1.39-2.053 1.82-3.636.43-1.582.662-3.602.662-6.093v-2.828c0-2.458-.265-4.478-.761-5.993-.496-1.549-1.158-2.761-1.985-3.636-.827-.875-1.754-1.448-2.846-1.751a12.3 12.3 0 00-3.341-.437c-1.555 0-2.978.202-4.334.606-1.357.404-2.449.909-3.342 1.481v18.18zm48.966-30.637v-5.757h33.78v9.259h-5.79v-3.502h-15.781v14.78h15.186v5.892h-15.186v15.453h16.377v-3.502h5.79v9.259h-32.854v-5.757h3.044v-36.125h-4.566zm76.989 4.983v5.791c-.661 0-1.356.067-2.051.168-.695.101-1.489.404-2.316.909l-2.184 2.626a226.454 226.454 0 00-3.738 4.545 157.983 157.983 0 01-3.739 4.478l10.554 12.692h3.441v5.757h-8.106l-10.554-12.827-10.488 12.827h-7.973v-5.757c.893 0 1.654-.101 2.283-.269.628-.169 1.389-.573 2.216-1.212l9.297-11.211-10.488-12.693h-3.308v-5.79h7.907a301.332 301.332 0 015.294 6.464c1.72 2.154 3.474 4.343 5.293 6.464l10.621-12.962h8.039zm16.344 48.817a92.582 92.582 0 01-3.639 1.178c-1.224.37-2.448.774-3.639 1.178v-42.218c0-1.346-.166-2.289-.53-2.828-.364-.538-.893-.808-1.654-.808-.926 0-1.82.169-2.647.472l-.595-4.512c.926-.336 1.786-.673 2.547-.942a7.371 7.371 0 012.482-.404c1.224 0 2.249.202 3.076.606.828.404 1.522 1.077 2.151 1.986 1.224-.842 2.746-1.582 4.533-2.188 1.786-.606 4.102-.943 6.948-.943 1.819 0 3.606.236 5.392.673 1.787.438 3.375 1.313 4.765 2.559 1.389 1.246 2.514 2.963 3.374 5.117.861 2.155 1.291 4.983 1.291 8.417v5.622c0 3.3-.43 5.993-1.291 8.047-.86 2.053-1.985 3.669-3.374 4.814-1.39 1.178-2.945 1.953-4.698 2.39-1.754.438-3.507.64-5.327.64-2.581 0-4.599-.168-5.989-.539-1.422-.37-2.448-.774-3.176-1.279v12.962zm0-18.753c.894.404 1.853.775 2.978 1.078 1.092.303 2.68.471 4.764.471 1.191 0 2.316-.135 3.408-.404s2.018-.808 2.845-1.616c.827-.808 1.456-1.953 1.952-3.468.497-1.515.728-3.501.728-5.992v-2.828c0-2.492-.231-4.545-.695-6.094-.463-1.582-1.091-2.794-1.885-3.703-.794-.909-1.721-1.515-2.746-1.852-1.026-.337-2.151-.505-3.342-.505-1.687 0-3.209.269-4.599.774-1.39.505-2.514 1.078-3.408 1.717v22.422zm47.312 7.609c-1.952 0-3.904-.269-5.889-.774-2.018-.505-3.838-1.448-5.492-2.761-1.655-1.313-3.011-3.097-4.07-5.319-1.058-2.222-1.588-5.017-1.588-8.417v-5.387c0-3.4.496-6.127 1.522-8.181 1.026-2.053 2.316-3.636 3.937-4.78 1.621-1.111 3.375-1.852 5.36-2.189a33.73 33.73 0 015.691-.505c1.819 0 3.606.202 5.393.606 1.786.404 3.374 1.145 4.797 2.256 1.423 1.111 2.547 2.626 3.408 4.579.86 1.952 1.29 4.477 1.29 7.608 0 1.078-.033 2.155-.099 3.3a19.099 19.099 0 01-.364 2.828h-23.888c0 2.121.331 3.871.96 5.319.628 1.448 1.456 2.559 2.415 3.434a9.027 9.027 0 003.143 1.818c1.125.37 2.151.539 3.143.539 2.68 0 4.897-.101 6.617-.337a68.18 68.18 0 004.798-.808l1.918 4.915c-1.621.775-3.573 1.347-5.822 1.717-2.35.337-4.699.539-7.18.539zm-.926-32.791c-1.092 0-2.184.101-3.243.303a5.856 5.856 0 00-2.845 1.414c-.827.74-1.522 1.818-2.051 3.232-.53 1.414-.827 3.299-.861 5.689h16.775c.231-.303.364-.639.397-1.01.033-.37.066-.841.066-1.481-.033-1.481-.298-2.727-.794-3.771-.496-1.043-1.092-1.851-1.853-2.525a7.47 7.47 0 00-2.581-1.414 10.861 10.861 0 00-3.01-.437zm43.54 3.366l-5.095.404-.331-2.76c-.827 0-1.754.067-2.779.168a11.04 11.04 0 00-2.846.673c-.893.337-1.621.808-2.216 1.414-.596.606-.894 1.414-.894 2.391v26.394h-7.312v-29.795l-4.367.337-.198-5.252a26.419 26.419 0 014.268-1.212 86.978 86.978 0 014.731-.808v3.501c1.158-1.313 2.481-2.323 4.069-3.131 1.555-.774 3.573-1.178 6.022-1.178 1.058 0 2.15.067 3.308.168s2.349.303 3.64.573v8.113zm16.244-19.728v11.278h7.643v5.959h-7.709v22.422c0 2.323.761 3.501 2.25 3.501.662 0 1.356-.067 2.117-.202.761-.134 1.688-.303 2.846-.538l.728 5.319c-1.026.236-2.184.471-3.541.774a18.368 18.368 0 01-4.069.438c-2.647 0-4.566-1.044-5.757-3.165-1.224-2.087-1.82-4.949-1.82-8.517V248.48h-5.856l.53-5.959h4.632c.397-.909.728-2.155.992-3.771.265-1.616.397-3.905.397-6.834l6.617-.707zm36.096 21.479v-3.838c-.893-.37-1.853-.64-2.945-.875a15.605 15.605 0 00-3.341-.337c-2.548 0-4.533.37-5.922 1.145-1.423.774-2.118 1.784-2.118 3.097 0 1.448.53 2.525 1.555 3.266 1.026.74 2.746 1.313 5.128 1.717 1.324.37 2.879.673 4.698.942 1.82.27 3.507.741 5.162 1.414 1.621.674 3.01 1.717 4.168 3.098 1.158 1.38 1.721 3.366 1.721 5.959 0 4.073-1.29 7.103-3.871 9.09-2.581 1.986-6.22 2.996-10.918 2.996-2.845 0-5.525-.168-7.941-.471a51.04 51.04 0 01-6.881-1.347l.661-9.73h5.625v3.838c.827.371 1.886.707 3.176 1.044 1.29.337 2.746.505 4.433.505 1.986 0 3.541-.236 4.665-.741 1.125-.505 1.952-1.077 2.515-1.717.562-.639.893-1.313.992-1.952.1-.64.166-1.145.166-1.448 0-.842-.232-1.582-.728-2.155-.496-.572-1.191-1.077-2.084-1.447-.894-.371-1.985-.707-3.309-.977a102.65 102.65 0 00-4.4-.808c-4.037-.707-6.981-1.885-8.768-3.501-1.819-1.616-2.713-3.905-2.713-6.902 0-2.053.364-3.77 1.059-5.151.695-1.38 1.72-2.457 3.011-3.333 1.29-.841 2.878-1.447 4.731-1.818 1.853-.37 3.937-.538 6.253-.538 1.687 0 3.441.134 5.36.37 1.886.236 4.135.673 6.716 1.313l-.595 9.258h-5.261v.034z" fill="#DD6900"/></svg>