<?xml version="1.0" standalone="no"?>
<!DOCTYPE svg PUBLIC "-//W3C//DTD SVG 20010904//EN"
 "http://www.w3.org/TR/2001/REC-SVG-20010904/DTD/svg10.dtd">
<svg version="1.0" xmlns="http://www.w3.org/2000/svg"
 width="512.000000pt" height="512.000000pt" viewBox="0 0 512.000000 512.000000"
 preserveAspectRatio="xMidYMid meet">
<metadata>
Created by potrace 1.11, written by Peter Selinger 2001-2013
</metadata>
<g transform="translate(0.000000,512.000000) scale(0.100000,-0.100000)"
fill="#000000" stroke="none">
<path d="M1570 4195 l0 -255 -785 0 -785 0 0 -1155 0 -1155 555 0 c305 0 555
-3 555 -7 0 -5 -36 -75 -79 -158 l-79 -150 82 -157 81 -158 97 0 97 0 -66 142
c-36 79 -67 150 -70 158 -2 9 27 85 66 170 l70 155 36 3 37 3 -25 -43 c-13
-24 -52 -95 -85 -159 l-61 -115 83 -155 82 -154 97 -3 97 -3 0 -164 0 -165
1020 0 1020 0 0 165 0 165 68 0 67 0 82 157 82 157 -83 158 -84 159 35 -3 c35
-3 36 -4 105 -153 38 -83 67 -159 65 -170 -3 -11 -34 -84 -70 -163 l-66 -142
98 0 98 0 81 157 82 156 -80 153 c-44 84 -80 155 -80 158 0 3 9 6 20 6 20 0
20 7 20 345 l0 345 535 0 535 0 0 810 0 810 -785 0 -785 0 0 255 0 255 -990 0
-990 0 0 -255z m652 -162 c19 -60 85 -278 148 -485 l115 -378 75 0 75 0 119
393 c66 215 133 434 148 485 l29 92 291 0 c228 0 289 -3 286 -12 -3 -7 -100
-287 -216 -623 l-212 -610 234 -630 234 -630 -163 -3 -163 -2 -5 -33 c-3 -17
-18 -159 -33 -314 l-28 -283 -173 0 -174 0 3 92 3 93 148 3 147 3 0 219 0 220
-73 0 -72 0 -166 498 -166 497 -73 0 -73 0 -166 -497 -166 -497 -177 -1 -178
0 0 -125 0 -125 -45 0 -45 0 0 125 0 124 -69 3 -68 3 233 630 234 630 -91 265
c-50 146 -147 424 -215 619 -68 194 -124 355 -124 357 0 2 130 4 289 4 l290 0
33 -107z m-1152 -718 l0 -135 250 0 250 0 0 -285 0 -285 -250 0 -250 0 0 -245
0 -245 -282 2 -283 3 -3 650 c-1 358 0 656 3 663 3 9 70 12 285 12 l280 0 0
-135z m3550 -185 l0 -310 -285 0 -285 0 0 310 0 310 285 0 285 0 0 -310z
m-2330 -1815 l0 -315 -40 0 -40 0 0 315 0 315 40 0 40 0 0 -315z m390 0 l0
-315 -125 0 -125 0 0 250 0 250 90 0 90 0 0 65 0 65 35 0 35 0 0 -315z m-1112
-157 l-3 -151 -69 152 c-56 123 -67 156 -59 174 5 12 36 81 69 154 l59 132 3
-155 c1 -85 1 -223 0 -306z m2056 311 c36 -81 66 -151 66 -156 0 -6 -20 -53
-44 -104 l-43 -94 -6 40 c-4 22 -13 114 -22 205 -8 91 -18 188 -21 215 -3 28
-4 48 -1 45 3 -3 35 -71 71 -151z m-1556 -156 l2 -183 -70 0 -70 0 0 185 0
186 68 -3 67 -3 3 -182z m902 97 l0 -90 -80 0 -80 0 0 83 c0 46 3 87 7 90 3 4
39 7 80 7 l73 0 0 -90z m461 35 c4 -27 9 -76 12 -107 l6 -58 -66 0 -65 0 6 63
c4 34 9 84 12 110 l6 48 41 -3 42 -3 6 -50z m-1631 -320 l0 -125 -45 0 -45 0
0 125 0 125 45 0 45 0 0 -125z m1664 -21 c3 -26 6 -60 6 -75 l0 -29 -88 0 -88
0 4 43 c1 23 5 57 8 75 l5 32 73 0 73 0 7 -46z"/>
</g>
</svg>
