<svg width="32" height="18" viewBox="0 0 32 18" fill="none" xmlns="http://www.w3.org/2000/svg">
<path opacity="0.87" d="M16 1.52588e-07C5.5024 1.52588e-07 0 7.7312 0 8.96C0 10.1856 5.5024 17.92 16 17.92C26.496 17.92 32 10.1856 32 8.96C32 7.7312 26.496 1.52588e-07 16 1.52588e-07ZM16 15.8512C12.072 15.8512 8.888 12.7664 8.888 8.96C8.888 5.1536 12.072 2.0656 16 2.0656C19.928 2.0656 23.1104 5.1536 23.1104 8.96C23.1104 12.7664 19.928 15.8512 16 15.8512ZM16 8.96C15.3488 8.2448 17.0608 5.5136 16 5.5136C14.0352 5.5136 12.4432 7.0576 12.4432 8.96C12.4432 10.8624 14.0352 12.4064 16 12.4064C17.9632 12.4064 19.5568 10.8624 19.5568 8.96C19.5568 8.0848 16.5536 9.5664 16 8.96Z" fill="black"/>
</svg>
