<svg width="23" height="22" viewBox="0 0 23 22" fill="none" xmlns="http://www.w3.org/2000/svg">
<path d="M11.0011 6.8297e-09C4.93396 6.8297e-09 -1.25666e-08 4.9351 -1.25666e-08 11C-1.25666e-08 17.0649 4.93396 22 11.0011 22C17.066 22 22.0011 17.0649 22.0011 11C22.0011 4.9351 17.066 6.8297e-09 11.0011 6.8297e-09ZM20.3832 11C20.3832 13.1461 19.6545 15.125 18.4399 16.7062C18.0961 16.4381 17.7306 15.7128 18.0744 14.9611C18.4216 14.2049 18.5121 12.4541 18.4319 11.7723C18.3563 11.0917 18.0022 9.45198 17.0408 9.43594C16.0806 9.42219 15.4218 9.10479 14.8511 7.96583C13.6675 5.59625 17.0729 5.14135 15.8893 3.83052C15.5581 3.46156 13.8463 5.34531 13.5953 2.83479C13.5793 2.6549 13.75 2.38562 13.9803 2.10604C17.6974 3.355 20.3832 6.86927 20.3832 11ZM9.71208 1.71073C9.4875 2.14844 8.8951 2.32604 8.53531 2.6549C7.75156 3.36417 7.41469 3.26562 6.99302 3.94625C6.56792 4.62687 5.1975 5.60656 5.1975 6.09927C5.1975 6.59198 5.88958 7.17177 6.23563 7.05948C6.58167 6.9449 7.4949 6.95177 8.03115 7.13969C8.56854 7.3299 12.5159 7.5201 11.2578 10.8568C10.8591 11.9178 9.11167 11.7391 8.64646 13.4956C8.57656 13.7534 8.33479 14.8546 8.3199 15.2144C8.29125 15.7712 8.71406 17.8704 8.17667 17.8704C7.63698 17.8704 6.18521 15.9924 6.18521 15.6521C6.18521 15.3118 5.80937 14.119 5.80937 13.0969C5.80937 12.0759 4.07 12.092 4.07 10.7342C4.07 9.51042 5.01302 8.90083 4.80104 8.31302C4.59365 7.72865 2.93677 7.70917 2.24583 7.63698C3.4524 4.50771 6.29063 2.1851 9.71208 1.71073ZM8.04948 19.9031C8.61323 19.6052 8.67052 19.2202 9.18156 19.2007C9.76594 19.1744 10.2415 18.9727 10.9003 18.8272C11.4847 18.7 12.5308 18.1065 13.4509 18.0308C14.2278 17.9678 15.7598 18.0709 16.1723 18.8203C14.6884 19.8069 12.909 20.3821 11 20.3821C9.9699 20.3821 8.9776 20.2114 8.04948 19.9031Z" fill="#999999"/>
</svg>
