<svg width="40" height="40" viewBox="0 0 40 40" fill="none" xmlns="http://www.w3.org/2000/svg">
<g opacity="0.87">
<path d="M14.1139 24.9464C13.7732 24.9277 12.8586 24.9436 12.7557 24.9456C12.4297 24.9516 12.168 25.2177 12.168 25.5441V31.1222C12.168 31.4529 12.4361 31.7207 12.7665 31.7207C13.0968 31.7207 13.365 31.4529 13.365 31.1222V28.9316H14.2452C15.0141 28.9316 16.158 28.4229 16.158 27.0204C16.158 26.2883 15.8923 25.0454 14.1139 24.9464ZM14.2452 27.7346H13.365V26.1354C13.6359 26.133 13.9132 26.1342 14.0477 26.1418C14.6538 26.1753 14.961 26.3206 14.961 27.0208C14.961 27.6277 14.5085 27.7287 14.2452 27.7346Z" fill="#767676"/>
<path d="M26.93 24.9377H24.536C24.2056 24.9377 23.9375 25.2055 23.9375 25.5362V31.1223C23.9375 31.4531 24.2056 31.7208 24.536 31.7208C24.8664 31.7208 25.1345 31.4531 25.1345 31.1223V28.9278H26.7305C27.0609 28.9278 27.329 28.66 27.329 28.3293C27.329 27.9985 27.0609 27.7308 26.7305 27.7308H25.1345V26.1348H26.93C27.2604 26.1348 27.5285 25.867 27.5285 25.5362C27.5285 25.2055 27.2604 24.9377 26.93 24.9377Z" fill="#767676"/>
<path d="M18.3524 24.9377C18.022 24.9377 17.7539 25.2055 17.7539 25.5362V31.1115C17.7539 31.4207 17.9897 31.6793 18.2977 31.7076C18.3185 31.7096 18.4526 31.7208 18.6608 31.7208C19.31 31.7208 20.6822 31.6107 21.6139 30.76C22.2295 30.1982 22.5415 29.4337 22.5415 28.4881C22.5419 25.5534 20.2636 24.9377 18.3524 24.9377ZM20.8103 29.873C20.2864 30.3534 19.4828 30.4847 18.9509 30.515V26.1535C20.2138 26.2429 21.3449 26.6942 21.3449 28.4877C21.3449 29.0898 21.1702 29.543 20.8103 29.873Z" fill="#767676"/>
<path d="M31.7445 11.9398L24.4587 4.56663C24.3462 4.45291 24.193 4.38867 24.033 4.38867H8.17663C7.84625 4.38867 7.57812 4.6564 7.57812 4.98718V34.9124C7.57812 35.2431 7.84625 35.5109 8.17663 35.5109H31.3188C31.6491 35.5109 31.9173 35.2431 31.9173 34.9124V12.3603C31.9173 12.2031 31.8554 12.0519 31.7445 11.9398ZM24.7352 6.54967L29.8943 11.7706H24.7352V6.54967ZM8.77513 34.3143V5.58608H23.5382V12.3691C23.5382 12.6999 23.8064 12.9676 24.1367 12.9676H30.7203V34.3143H8.77513Z" fill="#767676"/>
</g>
</svg>
