<svg width="40" height="40" viewBox="0 0 40 40" fill="none" xmlns="http://www.w3.org/2000/svg">
<g opacity="0.87">
<path d="M31.7484 11.9397L24.4626 4.56657C24.3501 4.45285 24.1969 4.38861 24.0369 4.38861H8.18054C7.84976 4.38861 7.58203 4.65634 7.58203 4.98711V34.9123C7.58203 35.2431 7.84976 35.5108 8.18054 35.5108H31.3227C31.6535 35.5108 31.9212 35.2431 31.9212 34.9123V12.3603C31.9212 12.2031 31.8589 12.0519 31.7484 11.9397ZM24.7391 6.54961L29.8982 11.7706H24.7391V6.54961ZM8.77904 34.3142V5.58602H23.5421V12.3691C23.5421 12.6998 23.8099 12.9676 24.1406 12.9676H30.7242V34.3142H8.77904Z" fill="#767676"/>
<path d="M24.4889 24.9464C24.1482 24.9276 23.2336 24.9432 23.1307 24.9456C22.8043 24.9516 22.543 25.2177 22.543 25.5441V31.1221C22.543 31.4529 22.8107 31.7206 23.1415 31.7206C23.4722 31.7206 23.74 31.4529 23.74 31.1221V28.9316H24.6202C25.3891 28.9316 26.533 28.4229 26.533 27.0204C26.5334 26.2882 26.2677 25.0453 24.4889 24.9464ZM24.6206 27.7346H23.7404V26.1354C24.0101 26.1326 24.2886 26.1342 24.4227 26.1418C25.0288 26.1753 25.3364 26.3205 25.3364 27.0208C25.3364 27.6277 24.8839 27.7286 24.6206 27.7346Z" fill="#767676"/>
<path d="M16.7596 30.5237H14.2651L17.2632 25.8597C17.3817 25.6758 17.39 25.4416 17.2851 25.2492C17.1802 25.0573 16.9787 24.9376 16.76 24.9376H13.169C12.8382 24.9376 12.5705 25.2054 12.5705 25.5361C12.5705 25.8669 12.8382 26.1346 13.169 26.1346H15.6636L12.6655 30.7986C12.547 30.9825 12.5386 31.2167 12.6435 31.409C12.7485 31.601 12.9499 31.7207 13.1686 31.7207H16.7596C17.0904 31.7207 17.3581 31.4529 17.3581 31.1222C17.3581 30.7914 17.0904 30.5237 16.7596 30.5237Z" fill="#767676"/>
<path d="M19.7508 24.9376C19.4201 24.9376 19.1523 25.2054 19.1523 25.5361V31.1222C19.1523 31.4529 19.4201 31.7207 19.7508 31.7207C20.0816 31.7207 20.3493 31.4529 20.3493 31.1222V25.5361C20.3493 25.2054 20.0816 24.9376 19.7508 24.9376Z" fill="#767676"/>
</g>
</svg>
