<svg width="40" height="40" viewBox="0 0 40 40" fill="none" xmlns="http://www.w3.org/2000/svg">
<g opacity="0.87">
<path d="M31.7484 11.9398L24.4626 4.56663C24.3501 4.45291 24.1969 4.38867 24.0369 4.38867H8.18054C7.84976 4.38867 7.58203 4.6564 7.58203 4.98718V34.9124C7.58203 35.2431 7.84976 35.5109 8.18054 35.5109H31.3227C31.6535 35.5109 31.9212 35.2431 31.9212 34.9124V12.3603C31.9212 12.2031 31.8589 12.0519 31.7484 11.9398ZM24.7391 6.54967L29.8982 11.7706H24.7391V6.54967ZM8.77904 34.3143V5.58608H23.5421V12.3691C23.5421 12.6999 23.8099 12.9676 24.1406 12.9676H30.7242V34.3143H8.77904Z" fill="#767676"/>
<path d="M15.5617 24.9377H11.1727C10.8419 24.9377 10.5742 25.2055 10.5742 25.5362C10.5742 25.867 10.8419 26.1348 11.1727 26.1348H12.7687V30.9228C12.7687 31.2536 13.0365 31.5213 13.3672 31.5213C13.698 31.5213 13.9657 31.2536 13.9657 30.9228V26.1348H15.5617C15.8925 26.1348 16.1603 25.867 16.1603 25.5362C16.1603 25.2055 15.8925 24.9377 15.5617 24.9377Z" fill="#767676"/>
<path d="M28.3313 24.9377H23.9423C23.6115 24.9377 23.3438 25.2055 23.3438 25.5362C23.3438 25.867 23.6115 26.1348 23.9423 26.1348H25.5383V30.9228C25.5383 31.2536 25.806 31.5213 26.1368 31.5213C26.4675 31.5213 26.7353 31.2536 26.7353 30.9228V26.1348H28.3313C28.6621 26.1348 28.9298 25.867 28.9298 25.5362C28.9298 25.2055 28.6621 24.9377 28.3313 24.9377Z" fill="#767676"/>
<path d="M21.8687 25.0326C21.591 24.8535 21.2203 24.9341 21.0416 25.2126L19.7496 27.2224L18.4577 25.2126C18.2789 24.9345 17.9086 24.8535 17.6305 25.0326C17.3524 25.2114 17.2718 25.5817 17.4506 25.8598L19.0382 28.3292L17.4506 30.7986C17.2718 31.0767 17.3524 31.447 17.6305 31.6258C17.7307 31.6904 17.8428 31.7207 17.9537 31.7207C18.1504 31.7207 18.3435 31.6238 18.4577 31.4458L19.7496 29.436L21.0416 31.4458C21.1561 31.6238 21.3488 31.7207 21.5455 31.7207C21.6565 31.7207 21.7686 31.69 21.8687 31.6258C22.1468 31.447 22.2274 31.0767 22.0487 30.7986L20.461 28.3292L22.0487 25.8598C22.2274 25.5817 22.1468 25.2114 21.8687 25.0326Z" fill="#767676"/>
</g>
</svg>
