<svg width="40" height="40" viewBox="0 0 40 40" fill="none" xmlns="http://www.w3.org/2000/svg">
<g opacity="0.87">
<path d="M31.7484 11.9398L24.4626 4.56659C24.3501 4.45288 24.1969 4.38904 24.0369 4.38904H8.18054C7.85016 4.38904 7.58203 4.65717 7.58203 4.98754V34.9127C7.58203 35.2431 7.85016 35.5112 8.18054 35.5112H31.3227C31.6531 35.5112 31.9212 35.2431 31.9212 34.9127V12.3607C31.9212 12.2035 31.8593 12.0523 31.7484 11.9398ZM24.7391 6.54964L29.8978 11.7706H24.7391V6.54964ZM8.77904 34.3142V5.58605H23.5421V12.3691C23.5421 12.6995 23.8103 12.9676 24.1406 12.9676H30.7242V34.3142H8.77904Z" fill="#767676"/>
<path d="M20.2535 25.3127C20.1621 25.0861 19.9427 24.9377 19.6981 24.9377C19.6965 24.9377 19.6949 24.9377 19.6937 24.9377C19.4475 24.9397 19.2277 25.0917 19.1395 25.3211L16.9973 30.8844C16.8784 31.1928 17.032 31.5396 17.3404 31.6577C17.6488 31.7766 17.9952 31.623 18.1137 31.3145L18.4181 30.5237H21.0583L21.3887 31.3457C21.4824 31.5791 21.7071 31.7207 21.9441 31.7207C22.0187 31.7207 22.0941 31.7072 22.1675 31.6776C22.4744 31.5543 22.6232 31.2056 22.4995 30.8992L20.2535 25.3127ZM18.8798 29.3267L19.7101 27.1705L20.5775 29.3267H18.8798Z" fill="#767676"/>
<path d="M15.7635 27.0204C15.7635 26.2878 15.4977 25.0445 13.7198 24.9464C13.379 24.928 12.4645 24.944 12.3608 24.9456C12.0348 24.952 11.7734 25.2181 11.7734 25.5441V31.1217C11.7734 31.4521 12.0416 31.7202 12.3719 31.7202C12.7023 31.7202 12.9704 31.4521 12.9704 31.1217V29.5225L14.7145 31.5159C14.833 31.6516 14.9986 31.7206 15.1654 31.7206C15.3054 31.7206 15.4455 31.672 15.5588 31.5726C15.8078 31.3547 15.8333 30.9769 15.6154 30.7283L14.0342 28.9212C14.7891 28.8466 15.7635 28.3148 15.7635 27.0204ZM13.8506 27.7342H12.996L12.9704 27.7051V26.135C13.241 26.1338 13.5191 26.1342 13.6531 26.1418C14.2592 26.1753 14.5665 26.3201 14.5665 27.0204C14.5665 27.6277 14.114 27.7286 13.8506 27.7342Z" fill="#767676"/>
<path d="M27.7322 27.0204C27.7322 26.2879 27.4665 25.0446 25.6885 24.9464C25.3482 24.9281 24.4333 24.944 24.3295 24.9456C24.0035 24.952 23.7422 25.2182 23.7422 25.5441V31.1218C23.7422 31.4522 24.0103 31.7203 24.3407 31.7203C24.6711 31.7203 24.9392 31.4522 24.9392 31.1218V29.5226L26.6832 31.516C26.8017 31.6517 26.9673 31.7207 27.1341 31.7207C27.2742 31.7207 27.4142 31.672 27.5275 31.5727C27.7765 31.3548 27.802 30.977 27.5842 30.7284L26.0029 28.9213C26.7579 28.8467 27.7322 28.3148 27.7322 27.0204ZM25.8194 27.7343H24.9647L24.9392 27.7051V26.1351C25.2097 26.1339 25.4878 26.1343 25.6219 26.1418C26.228 26.1754 26.5352 26.3202 26.5352 27.0204C26.5352 27.6277 26.0827 27.7287 25.8194 27.7343Z" fill="#767676"/>
</g>
</svg>
