<svg width="40" height="40" viewBox="0 0 40 40" fill="none" xmlns="http://www.w3.org/2000/svg">
<g opacity="0.87">
<path d="M11.5712 25.3367C11.2404 25.3367 10.9727 25.6044 10.9727 25.9352V31.5104C10.9727 31.8197 11.2085 32.0782 11.5165 32.1065C11.5372 32.1085 11.6709 32.1197 11.88 32.1197C12.5292 32.1197 13.9013 32.0096 14.833 31.1589C15.4487 30.5971 15.7607 29.8326 15.7607 28.887C15.7607 25.9523 13.4824 25.3367 11.5712 25.3367ZM14.029 30.2719C13.5055 30.7523 12.7015 30.8836 12.1697 30.9139V26.5524C13.4325 26.6418 14.5637 27.0931 14.5637 28.8866C14.5637 29.4887 14.3889 29.942 14.029 30.2719Z" fill="#767676"/>
<path d="M19.7498 25.3367C18.2954 25.3367 17.1562 26.8261 17.1562 28.7282C17.1562 30.6302 18.2954 32.1197 19.7498 32.1197C21.2041 32.1197 22.3433 30.6302 22.3433 28.7282C22.3433 26.8261 21.2041 25.3367 19.7498 25.3367ZM19.7498 30.9227C18.9929 30.9227 18.3533 29.9176 18.3533 28.7282C18.3533 27.5388 18.9929 26.5337 19.7498 26.5337C20.5067 26.5337 21.1463 27.5388 21.1463 28.7282C21.1463 29.9176 20.5067 30.9227 19.7498 30.9227Z" fill="#767676"/>
<path d="M28.2158 29.8849C27.9245 29.7269 27.5614 29.8358 27.4046 30.1267C27.1309 30.6326 26.7419 30.9227 26.3373 30.9227C25.5792 30.9227 24.9388 29.9176 24.9388 28.7282C24.9388 27.5388 25.5792 26.5337 26.3373 26.5337C26.789 26.5337 27.111 26.8896 27.2626 27.1015C27.4549 27.3704 27.8284 27.4322 28.0977 27.2403C28.3666 27.048 28.4289 26.6741 28.2366 26.4052C27.751 25.7261 27.0587 25.3367 26.3377 25.3367C24.8821 25.3367 23.7422 26.8261 23.7422 28.7282C23.7422 30.6302 24.8821 32.1197 26.3377 32.1197C27.1836 32.1197 27.976 31.5874 28.458 30.6961C28.6148 30.4048 28.5067 30.0417 28.2158 29.8849Z" fill="#767676"/>
<path d="M31.7484 11.9398L24.4626 4.56663C24.3501 4.45291 24.1969 4.38867 24.0369 4.38867H8.18054C7.84976 4.38867 7.58203 4.6564 7.58203 4.98718V34.9124C7.58203 35.2431 7.84976 35.5109 8.18054 35.5109H31.3227C31.6535 35.5109 31.9212 35.2431 31.9212 34.9124V12.3603C31.9212 12.2031 31.8589 12.0519 31.7484 11.9398ZM24.7391 6.54967L29.8982 11.7706H24.7391V6.54967ZM8.77904 34.3143V5.58608H23.5421V12.3691C23.5421 12.6999 23.8099 12.9676 24.1406 12.9676H30.7242V34.3143H8.77904Z" fill="#767676"/>
</g>
</svg>
