<svg width="40" height="40" viewBox="0 0 40 40" fill="none" xmlns="http://www.w3.org/2000/svg">
<g opacity="0.87">
<path d="M21.1466 24.5386C20.8162 24.5386 20.5481 24.8064 20.5481 25.1371V28.6855L18.0591 24.8135C17.9154 24.5901 17.6413 24.4884 17.3868 24.563C17.1318 24.638 16.957 24.8718 16.957 25.1371V30.7232C16.957 31.0539 17.2252 31.3217 17.5555 31.3217C17.8859 31.3217 18.154 31.0539 18.154 30.7232V27.1748L20.643 31.0468C20.7551 31.2215 20.9467 31.3217 21.1466 31.3217C21.2028 31.3217 21.2595 31.3137 21.3153 31.2973C21.5703 31.2223 21.7451 30.9885 21.7451 30.7232V25.1371C21.7451 24.8064 21.4769 24.5386 21.1466 24.5386Z" fill="#767676"/>
<path d="M31.7484 11.9397L24.4626 4.56657C24.3501 4.45285 24.1969 4.38861 24.0369 4.38861H8.18054C7.85016 4.38861 7.58203 4.65634 7.58203 4.98711V34.9123C7.58203 35.2431 7.85016 35.5108 8.18054 35.5108H31.3227C31.6531 35.5108 31.9212 35.2431 31.9212 34.9123V12.3603C31.9212 12.2031 31.8593 12.0519 31.7484 11.9397ZM24.7391 6.54961L29.8982 11.7706H24.7391V6.54961ZM8.77904 34.3142V5.58602H23.5421V12.3691C23.5421 12.6998 23.8103 12.9676 24.1406 12.9676H30.7242V34.3142H8.77904Z" fill="#767676"/>
<path d="M13.317 24.5474C12.9763 24.529 12.0618 24.5446 11.9588 24.5466C11.6328 24.5526 11.3711 24.8187 11.3711 25.1451V30.7231C11.3711 31.0539 11.6392 31.3216 11.9696 31.3216C12.3 31.3216 12.5681 31.0539 12.5681 30.7231V28.5326H13.4483C14.2172 28.5326 15.3611 28.0239 15.3611 26.6214C15.3611 25.8892 15.0954 24.6463 13.317 24.5474ZM13.4483 27.3356H12.5681V25.7364C12.839 25.734 13.1163 25.7352 13.2508 25.7428C13.8569 25.7763 14.1641 25.9215 14.1641 26.6218C14.1641 27.2287 13.7116 27.3296 13.4483 27.3356Z" fill="#767676"/>
<path d="M27.7331 27.8898H26.1371C25.8067 27.8898 25.5385 28.1576 25.5385 28.4883C25.5385 28.8191 25.8067 29.0868 26.1371 29.0868H26.9849C26.8118 29.5541 26.4543 30.1242 25.738 30.1242C24.7788 30.1242 24.3415 29.0832 24.3415 28.1161C24.3415 25.7352 25.3929 25.7352 25.738 25.7352C26.4718 25.7352 26.7427 26.3832 26.7723 26.4602C26.8856 26.7686 27.2263 26.9274 27.5356 26.8173C27.8468 26.706 28.0092 26.3636 27.8978 26.0524C27.6968 25.4898 27.0157 24.5382 25.738 24.5382C24.7693 24.5382 23.1445 25.003 23.1445 28.1161C23.1445 29.9734 24.235 31.3212 25.738 31.3212C27.6928 31.3212 28.3316 29.2145 28.3316 28.4883C28.3316 28.158 28.0634 27.8898 27.7331 27.8898Z" fill="#767676"/>
</g>
</svg>
