<svg width="21" height="14" viewBox="0 0 21 14" fill="none" xmlns="http://www.w3.org/2000/svg">
  <path
    d="M0.669668 1.50033C1.239 1.806 9.12567 6.04333 9.41967 6.20083C9.71367 6.35833 10.094 6.433 10.4767 6.433C10.8593 6.433 11.2397 6.35833 11.5337 6.20083C11.8277 6.04333 19.7143 1.806 20.2837 1.50033C20.8542 1.1935 21.3932 0 20.3467 0H0.607835C-0.438665 0 0.100335 1.1935 0.669668 1.50033ZM20.5485 4.0705C19.901 4.40767 11.9303 8.561 11.5337 8.76867C11.137 8.97633 10.8593 9.00083 10.4767 9.00083C10.094 9.00083 9.81634 8.97633 9.41967 8.76867C9.023 8.561 1.09784 4.4065 0.450335 4.06933C-0.00466473 3.83133 1.88547e-06 4.11017 1.88547e-06 4.32483C1.88547e-06 4.5395 1.88547e-06 12.8333 1.88547e-06 12.8333C1.88547e-06 13.3233 0.660335 14 1.16667 14H19.8333C20.3397 14 21 13.3233 21 12.8333C21 12.8333 21 4.54067 21 4.326C21 4.11133 21.0047 3.8325 20.5485 4.0705Z"
    fill="rgba(51, 51, 51, 0.87)"/>
</svg>
