<svg width="20" height="18" viewBox="0 0 20 18" fill="none" xmlns="http://www.w3.org/2000/svg">
<path d="M16.2394 0.769842C12.4046 -0.519273 8.55902 -0.27471 4.58733 2.15461C1.48629 4.04915 -0.540864 8.75888 0.127606 12.1349C0.918901 16.1251 4.8569 18.6511 10.1742 17.1903C15.9078 15.6153 17.2926 12.2491 17.1078 11.3925C16.9231 10.536 14.2111 9.59691 15.2405 7.59041C16.5318 5.07631 18.6415 6.34151 19.5687 5.82739C20.498 5.31435 20.1545 2.08613 16.2394 0.769842ZM12.2764 12.4067C11.409 12.6436 10.5123 12.1284 10.2731 11.2556C10.0329 10.3806 10.5427 9.48278 11.4101 9.24583C12.2775 9.00887 13.1731 9.52191 13.4133 10.3969C13.6524 11.2697 13.1438 12.1697 12.2764 12.4067Z" fill="#999999"/>
</svg>
