<svg width="20" height="16" viewBox="0 0 20 16" fill="none" xmlns="http://www.w3.org/2000/svg">
<path d="M10.5 8C10.5 9.38025 9.38025 10.5 8 10.5C6.61896 10.5 5.5 9.38025 5.5 8C5.5 6.61975 6.61896 5.5 8 5.5C9.38025 5.5 10.5 6.61975 10.5 8ZM16 2V14C16 15.0996 15.0996 16 14 16H2C0.900391 16 0 15.0996 0 14V2C0 0.900391 0.900391 0 2 0H14C15.0996 0 16 0.900391 16 2ZM12.5 8C12.5 5.51447 10.4846 3.5 8 3.5C5.51447 3.5 3.5 5.51447 3.5 8C3.5 10.4855 5.51447 12.5 8 12.5C10.4846 12.5 12.5 10.4855 12.5 8ZM19.2151 3.08563L17 4.56238V11.5624L19.2151 13.0392C19.5507 13.2628 20 13.0223 20 12.6191V3.50568C20 3.10248 19.5507 2.86194 19.2151 3.08563Z" fill="#999999"/>
</svg>
