<svg width="22" height="13" viewBox="0 0 22 13" fill="none" xmlns="http://www.w3.org/2000/svg">
<path opacity="0.87" d="M11 1.04904e-07C3.7829 1.04904e-07 0 5.3152 0 6.16C0 7.0026 3.7829 12.32 11 12.32C18.216 12.32 22 7.0026 22 6.16C22 5.3152 18.216 1.04904e-07 11 1.04904e-07ZM11 10.8977C8.2995 10.8977 6.1105 8.7769 6.1105 6.16C6.1105 3.5431 8.2995 1.4201 11 1.4201C13.7005 1.4201 15.8884 3.5431 15.8884 6.16C15.8884 8.7769 13.7005 10.8977 11 10.8977ZM11 6.16C10.5523 5.6683 11.7293 3.7906 11 3.7906C9.6492 3.7906 8.5547 4.8521 8.5547 6.16C8.5547 7.4679 9.6492 8.5294 11 8.5294C12.3497 8.5294 13.4453 7.4679 13.4453 6.16C13.4453 5.5583 11.3806 6.5769 11 6.16Z" fill="#999999"/>
</svg>
